<svg xmlns="http://www.w3.org/2000/svg" viewBox="0 0 107.75 75.64"><defs><style>.cls-1{fill:#fff;}</style></defs><title>Asset 23</title><g id="Layer_2" data-name="Layer 2"><g id="Layer_1-2" data-name="Layer 1"><path class="cls-1" d="M9,58.42a16.08,16.08,0,0,0,3.78-2.84,14.85,14.85,0,0,0,1.52-1.84c.23-.32.47-.64.68-1l.58-1c.39-.72.71-1.34,1-2a9.09,9.09,0,0,1,.56-.95c.2-.3.4-.61.59-.92a20.53,20.53,0,0,1,2.88-3.3,17.85,17.85,0,0,1,3.62-2.51,15.07,15.07,0,0,1,4.23-1.53,12,12,0,0,0-4.54.82,15.69,15.69,0,0,0-4.1,2.27l-.91.75c-.3.26-.56.56-.85.83l-.41.42-.38.46-.76.91-.66,1a10.42,10.42,0,0,0-.61,1c-.38.68-.76,1.4-1.11,2a16.78,16.78,0,0,1-5.79,6.39A20.75,20.75,0,0,1,0,60.42,16.4,16.4,0,0,0,9,58.42Z"/><path class="cls-1" d="M10.92,60.43a15.65,15.65,0,0,0,3.78-2.85,13.3,13.3,0,0,0,1.52-1.83c.23-.33.47-.64.68-1l.58-1c.39-.72.71-1.34,1.06-2a7,7,0,0,1,.56-1l.58-.92a21.57,21.57,0,0,1,2.88-3.3,17.85,17.85,0,0,1,3.62-2.51,15.18,15.18,0,0,1,4.23-1.53,12.23,12.23,0,0,0-4.54.81,16,16,0,0,0-4.1,2.28l-.91.75c-.3.26-.56.56-.84.83l-.42.42-.38.46-.75.91c-.23.32-.44.65-.66,1a8,8,0,0,0-.62,1c-.37.68-.76,1.4-1.11,2a16.66,16.66,0,0,1-5.78,6.38A20.71,20.71,0,0,1,2,62.43,16.38,16.38,0,0,0,10.92,60.43Z"/><path class="cls-1" d="M13.68,61.66a15.85,15.85,0,0,0,3.78-2.85A16.57,16.57,0,0,0,19,57c.22-.33.47-.65.68-1l.58-1c.39-.72.71-1.34,1.05-2a8.17,8.17,0,0,1,.56-.95c.2-.31.4-.61.59-.93a20.46,20.46,0,0,1,2.88-3.29,18.31,18.31,0,0,1,3.62-2.52,15.77,15.77,0,0,1,4.22-1.53,12.43,12.43,0,0,0-4.53.82,15.86,15.86,0,0,0-4.1,2.28l-.92.75c-.29.26-.56.55-.84.83l-.42.42L22,49.3l-.76.92-.66,1a10.37,10.37,0,0,0-.62,1c-.37.69-.76,1.41-1.1,2a16.68,16.68,0,0,1-5.79,6.38,20.76,20.76,0,0,1-8.34,3.06A16.4,16.4,0,0,0,13.68,61.66Z"/><path class="cls-1" d="M16.26,63.31a14.79,14.79,0,0,0,3.53-2.67,13.56,13.56,0,0,0,1.42-1.71c.22-.31.44-.61.64-.92l.55-1c.36-.67.66-1.26,1-1.87a7.08,7.08,0,0,1,.53-.88l.55-.87a18.82,18.82,0,0,1,2.69-3.09A17.37,17.37,0,0,1,30.54,48a14.66,14.66,0,0,1,4-1.44,11.75,11.75,0,0,0-4.25.77,15.05,15.05,0,0,0-3.84,2.13l-.85.71c-.28.24-.53.51-.79.77l-.39.4-.36.42-.7.86c-.22.3-.42.61-.62.92a8.18,8.18,0,0,0-.58.94c-.35.64-.71,1.31-1,1.88a15.74,15.74,0,0,1-5.42,6,19.61,19.61,0,0,1-7.81,2.86A15.27,15.27,0,0,0,16.26,63.31Z"/><path class="cls-1" d="M19,64.94a14.55,14.55,0,0,0,5-4.39c.21-.3.43-.6.63-.91l.55-1c.36-.67.66-1.25,1-1.87a7.9,7.9,0,0,1,.53-.88c.18-.29.37-.57.55-.87A18.75,18.75,0,0,1,29.9,52a17,17,0,0,1,3.39-2.36,14.64,14.64,0,0,1,4-1.43,11.33,11.33,0,0,0-4.25.77,14.75,14.75,0,0,0-3.84,2.13l-.85.7c-.28.24-.53.52-.79.78l-.39.39-.36.43-.7.85c-.22.3-.42.61-.62.92a9.14,9.14,0,0,0-.58.94c-.35.64-.71,1.32-1,1.89a15.72,15.72,0,0,1-5.42,6,19.47,19.47,0,0,1-7.81,2.87A15.45,15.45,0,0,0,19,64.94Z"/><path class="cls-1" d="M21.36,66.55a15,15,0,0,0,3.54-2.66,14.57,14.57,0,0,0,1.42-1.72c.21-.31.44-.6.64-.92l.54-1c.37-.67.67-1.25,1-1.87a6.55,6.55,0,0,1,.52-.88l.55-.87a19.29,19.29,0,0,1,2.7-3.08,16.44,16.44,0,0,1,3.39-2.36,14.57,14.57,0,0,1,4-1.43,11.53,11.53,0,0,0-4.25.76,14.73,14.73,0,0,0-3.83,2.14l-.86.7c-.28.24-.52.52-.79.78l-.39.39-.35.42-.71.86c-.21.3-.41.61-.62.92a9.86,9.86,0,0,0-.58.94c-.34.64-.71,1.32-1,1.89a15.64,15.64,0,0,1-5.42,6A19.2,19.2,0,0,1,13,68.42,15.27,15.27,0,0,0,21.36,66.55Z"/><path class="cls-1" d="M24.59,67.52a13.72,13.72,0,0,0,3.24-2.44,14.07,14.07,0,0,0,1.3-1.57c.19-.28.4-.55.58-.84l.5-.89c.33-.61.6-1.14.9-1.71a6.52,6.52,0,0,1,.48-.8c.17-.27.34-.53.5-.8a17.9,17.9,0,0,1,2.47-2.82,15.18,15.18,0,0,1,3.1-2.15,12.89,12.89,0,0,1,3.61-1.31,10.4,10.4,0,0,0-3.88.7,13.74,13.74,0,0,0-3.51,2l-.78.64c-.26.22-.48.47-.72.71l-.36.36-.33.39-.64.78c-.2.28-.38.56-.57.84s-.37.56-.53.86c-.31.59-.65,1.21-.94,1.73a14.31,14.31,0,0,1-5,5.46,17.72,17.72,0,0,1-7.14,2.62A14,14,0,0,0,24.59,67.52Z"/><path class="cls-1" d="M26.54,69.53a13.72,13.72,0,0,0,3.24-2.44,12.17,12.17,0,0,0,1.3-1.57c.19-.28.4-.55.58-.84l.5-.89c.33-.61.61-1.14.9-1.71a8.06,8.06,0,0,1,.48-.8c.17-.27.34-.53.5-.8a17.9,17.9,0,0,1,2.47-2.82,15.18,15.18,0,0,1,3.1-2.15,12.89,12.89,0,0,1,3.61-1.31,10.4,10.4,0,0,0-3.88.7,13.44,13.44,0,0,0-3.51,2l-.78.64c-.25.22-.48.47-.72.71l-.36.36-.32.39-.65.78-.56.84a7.64,7.64,0,0,0-.53.86c-.32.59-.65,1.21-.95,1.73A14.28,14.28,0,0,1,26,68.62a17.86,17.86,0,0,1-7.15,2.62A14,14,0,0,0,26.54,69.53Z"/><path class="cls-1" d="M28.83,71.24a13.46,13.46,0,0,0,3.23-2.44,12.17,12.17,0,0,0,1.3-1.57c.2-.28.41-.55.59-.83l.49-.89c.34-.62.61-1.15.91-1.71a6,6,0,0,1,.48-.81c.16-.27.34-.53.5-.8a17.83,17.83,0,0,1,2.47-2.82,15.23,15.23,0,0,1,3.09-2.15,13.74,13.74,0,0,1,3.62-1.31,10.4,10.4,0,0,0-3.88.7,13.57,13.57,0,0,0-3.51,2l-.79.64c-.25.23-.48.48-.72.71l-.35.36-.33.39-.64.78c-.2.28-.38.56-.57.84a7.64,7.64,0,0,0-.53.86c-.32.59-.65,1.21-.94,1.73a14.42,14.42,0,0,1-5,5.47A17.86,17.86,0,0,1,21.15,73,14,14,0,0,0,28.83,71.24Z"/><path class="cls-1" d="M31.3,72.61a13,13,0,0,0,3-2.29,11.56,11.56,0,0,0,1.22-1.48c.18-.26.38-.51.55-.78l.47-.84c.31-.57.57-1.07.84-1.6a7.23,7.23,0,0,1,.45-.76c.16-.25.32-.49.47-.74a16.27,16.27,0,0,1,2.32-2.65,14.4,14.4,0,0,1,2.91-2A12.38,12.38,0,0,1,47,58.22a9.62,9.62,0,0,0-3.65.66A12.39,12.39,0,0,0,40,60.71l-.73.6c-.24.21-.45.44-.68.66l-.33.34-.31.37-.6.73c-.19.26-.36.53-.53.79a6.07,6.07,0,0,0-.5.81c-.3.55-.61,1.13-.89,1.62a13.49,13.49,0,0,1-4.65,5.13,16.75,16.75,0,0,1-6.7,2.45A13.21,13.21,0,0,0,31.3,72.61Z"/><path class="cls-1" d="M42.26,62.56l-.71.59c-.23.2-.43.42-.65.64l-.33.33-.29.35-.58.71c-.18.25-.35.5-.52.76a6.78,6.78,0,0,0-.48.78c-.28.53-.58,1.09-.85,1.56a13,13,0,0,1-4.49,5,16.12,16.12,0,0,1-6.47,2.37,12.67,12.67,0,0,0,7-1.55,12.27,12.27,0,0,0,2.93-2.21A10.64,10.64,0,0,0,38,70.42c.18-.25.37-.5.53-.76l.45-.8c.31-.56.55-1,.82-1.55a6.79,6.79,0,0,1,.43-.74c.16-.23.31-.47.46-.71a16,16,0,0,1,2.23-2.56,14.39,14.39,0,0,1,2.81-1.95A12,12,0,0,1,49,60.16a9.49,9.49,0,0,0-3.52.64A12.39,12.39,0,0,0,42.26,62.56Z"/><path class="cls-1" d="M38.43,38.36a15.92,15.92,0,0,0,3.78-2.85,14,14,0,0,0,1.52-1.84c.23-.32.47-.64.68-1l.58-1c.39-.72.71-1.34,1.06-2a8,8,0,0,1,.56-.94l.58-.93a21.1,21.1,0,0,1,2.89-3.3A17.91,17.91,0,0,1,53.69,22a15.5,15.5,0,0,1,4.23-1.53,12,12,0,0,0-4.54.82,15.69,15.69,0,0,0-4.1,2.27l-.91.75c-.3.26-.56.56-.84.83l-.42.43-.38.45-.75.91c-.23.32-.44.66-.66,1a10.52,10.52,0,0,0-.62,1c-.37.68-.76,1.4-1.11,2a16.76,16.76,0,0,1-5.78,6.39,20.84,20.84,0,0,1-8.35,3.05A16.29,16.29,0,0,0,38.43,38.36Z"/><path class="cls-1" d="M40.39,40.36a15.85,15.85,0,0,0,3.78-2.85,14,14,0,0,0,1.51-1.83c.23-.32.47-.64.69-1l.58-1c.39-.72.71-1.35,1-2a9.09,9.09,0,0,1,.56-1c.2-.3.4-.61.59-.92A20.53,20.53,0,0,1,52,26.5,17.58,17.58,0,0,1,55.65,24a15,15,0,0,1,4.22-1.53,12.11,12.11,0,0,0-4.54.82,15.63,15.63,0,0,0-4.09,2.27l-.92.75c-.3.26-.56.56-.84.83l-.42.42-.38.46-.75.91c-.23.32-.44.65-.66,1a10.52,10.52,0,0,0-.62,1c-.37.68-.76,1.4-1.1,2a16.78,16.78,0,0,1-5.79,6.39,20.8,20.8,0,0,1-8.34,3A16.42,16.42,0,0,0,40.39,40.36Z"/><path class="cls-1" d="M43.14,41.59a15.65,15.65,0,0,0,3.78-2.85,13.3,13.3,0,0,0,1.52-1.83c.23-.33.47-.64.68-1l.58-1c.39-.72.71-1.34,1.06-2a8.1,8.1,0,0,1,.55-.95c.2-.31.4-.61.59-.92a20.11,20.11,0,0,1,2.88-3.3,18.31,18.31,0,0,1,3.62-2.52,15.84,15.84,0,0,1,4.23-1.53,12.44,12.44,0,0,0-4.54.82A16,16,0,0,0,54,26.78l-.91.75c-.3.26-.56.55-.85.83l-.41.42-.38.46-.76.91c-.22.32-.44.65-.65,1a8.71,8.71,0,0,0-.62,1c-.38.69-.76,1.41-1.11,2a16.68,16.68,0,0,1-5.79,6.38,20.61,20.61,0,0,1-8.34,3.06A16.38,16.38,0,0,0,43.14,41.59Z"/><path class="cls-1" d="M45.72,43.24a15,15,0,0,0,3.54-2.67,14.47,14.47,0,0,0,1.42-1.71c.21-.31.44-.6.64-.92l.54-1,1-1.87a6,6,0,0,1,.52-.88l.55-.87a19.29,19.29,0,0,1,2.7-3.08A16.65,16.65,0,0,1,60,27.91a14.64,14.64,0,0,1,4-1.43,11.53,11.53,0,0,0-4.25.76,14.73,14.73,0,0,0-3.83,2.14l-.86.7c-.28.24-.53.52-.79.77l-.39.4-.35.42-.71.86c-.21.3-.41.61-.62.92a9.86,9.86,0,0,0-.58.94l-1,1.89a15.64,15.64,0,0,1-5.42,6,19.46,19.46,0,0,1-7.81,2.86A15.27,15.27,0,0,0,45.72,43.24Z"/><path class="cls-1" d="M48.47,44.87A15,15,0,0,0,52,42.2a13.8,13.8,0,0,0,1.42-1.72c.21-.3.44-.6.64-.91l.54-1,1-1.87a6.55,6.55,0,0,1,.52-.88c.18-.29.37-.57.55-.87a19.29,19.29,0,0,1,2.7-3.08,16.65,16.65,0,0,1,3.38-2.36,14.64,14.64,0,0,1,4-1.43,11.54,11.54,0,0,0-4.25.77A14.7,14.7,0,0,0,58.63,31l-.86.7c-.28.24-.53.52-.79.78l-.39.39-.35.43-.71.85c-.21.3-.41.61-.62.92s-.41.61-.58.94c-.35.64-.71,1.32-1,1.89a15.56,15.56,0,0,1-5.42,6,19.47,19.47,0,0,1-7.81,2.87A15.45,15.45,0,0,0,48.47,44.87Z"/><path class="cls-1" d="M50.82,46.48a14.54,14.54,0,0,0,3.54-2.66,13.65,13.65,0,0,0,1.42-1.72c.21-.31.44-.6.64-.92l.54-1c.37-.67.67-1.25,1-1.87a9.68,9.68,0,0,1,.52-.88c.19-.29.38-.58.55-.87a19.29,19.29,0,0,1,2.7-3.08,16.71,16.71,0,0,1,3.39-2.36,14.57,14.57,0,0,1,4-1.43,11.51,11.51,0,0,0-4.24.76A15.09,15.09,0,0,0,61,32.62l-.86.7c-.27.24-.52.52-.79.78l-.39.39-.35.43-.71.85c-.21.3-.41.61-.61.92a7.67,7.67,0,0,0-.58.94c-.35.64-.71,1.32-1,1.89a15.64,15.64,0,0,1-5.42,6,19.36,19.36,0,0,1-7.81,2.87A15.37,15.37,0,0,0,50.82,46.48Z"/><path class="cls-1" d="M54.05,47.45A13.72,13.72,0,0,0,57.29,45a12.17,12.17,0,0,0,1.3-1.57c.19-.28.4-.55.58-.84l.5-.88.9-1.71a7.2,7.2,0,0,1,.48-.81c.17-.27.34-.53.5-.8A18.36,18.36,0,0,1,64,35.58a15.18,15.18,0,0,1,3.1-2.15,12.89,12.89,0,0,1,3.61-1.31,10.4,10.4,0,0,0-3.88.7,13.74,13.74,0,0,0-3.51,2l-.78.64c-.25.22-.48.48-.72.71l-.36.36-.32.39-.65.78-.56.84a7.64,7.64,0,0,0-.53.86c-.32.59-.65,1.21-1,1.73a14.21,14.21,0,0,1-4.95,5.46,17.71,17.71,0,0,1-7.15,2.62A14,14,0,0,0,54.05,47.45Z"/><path class="cls-1" d="M56,49.46A13.46,13.46,0,0,0,59.24,47a12.17,12.17,0,0,0,1.3-1.57c.2-.28.4-.55.59-.84l.49-.89c.34-.61.61-1.14.9-1.71a8.06,8.06,0,0,1,.48-.8l.51-.8A17.83,17.83,0,0,1,66,37.59a15.18,15.18,0,0,1,3.1-2.15,13.07,13.07,0,0,1,3.62-1.31,10.45,10.45,0,0,0-3.89.7,13.68,13.68,0,0,0-3.5,2l-.79.64c-.25.22-.48.47-.72.71l-.36.36-.32.39-.65.78-.56.84a7.64,7.64,0,0,0-.53.86c-.32.59-.65,1.21-.95,1.73a14.28,14.28,0,0,1-5,5.46,17.72,17.72,0,0,1-7.14,2.62A14.07,14.07,0,0,0,56,49.46Z"/><path class="cls-1" d="M58.29,51.17a13.72,13.72,0,0,0,3.24-2.44,12.17,12.17,0,0,0,1.3-1.57c.19-.28.4-.55.58-.83l.5-.89.9-1.71a7.2,7.2,0,0,1,.48-.81l.5-.79a17.46,17.46,0,0,1,2.47-2.82,15.63,15.63,0,0,1,3.1-2.16A13.54,13.54,0,0,1,75,35.84a10.61,10.61,0,0,0-3.88.7,13.74,13.74,0,0,0-3.51,2l-.78.64c-.26.23-.48.48-.72.71l-.36.37-.32.38-.65.79q-.28.4-.57.84a8.18,8.18,0,0,0-.52.86l-.95,1.72a14.34,14.34,0,0,1-5,5.47,17.8,17.8,0,0,1-7.14,2.61A13.94,13.94,0,0,0,58.29,51.17Z"/><path class="cls-1" d="M60.76,52.54a13,13,0,0,0,3-2.29A10.78,10.78,0,0,0,65,48.77c.19-.26.38-.51.55-.78l.47-.83.85-1.61a7.15,7.15,0,0,1,.44-.76l.48-.74a16.63,16.63,0,0,1,2.31-2.65,14.4,14.4,0,0,1,2.91-2,12.5,12.5,0,0,1,3.39-1.23,9.93,9.93,0,0,0-3.64.66,12.36,12.36,0,0,0-3.29,1.83l-.74.6c-.24.21-.45.44-.68.67l-.33.33-.31.37-.6.73-.53.79a6.79,6.79,0,0,0-.5.81c-.3.55-.61,1.13-.89,1.62a13.41,13.41,0,0,1-4.65,5.13,16.75,16.75,0,0,1-6.7,2.45A13.19,13.19,0,0,0,60.76,52.54Z"/><path class="cls-1" d="M71.72,42.49l-.71.59c-.23.2-.43.43-.65.64l-.32.33-.3.35-.58.71c-.18.25-.34.5-.51.76a5.62,5.62,0,0,0-.48.78c-.29.53-.59,1.09-.86,1.56a13,13,0,0,1-4.49,4.95,16.12,16.12,0,0,1-6.47,2.37,12.67,12.67,0,0,0,7-1.55,12.27,12.27,0,0,0,2.93-2.21,11.55,11.55,0,0,0,1.18-1.42c.17-.25.36-.5.53-.76l.45-.8c.3-.56.55-1,.81-1.55a5.89,5.89,0,0,1,.44-.73c.15-.24.31-.48.45-.72a15.58,15.58,0,0,1,2.24-2.56,13.81,13.81,0,0,1,2.81-1.95,11.84,11.84,0,0,1,3.27-1.19,9.53,9.53,0,0,0-3.52.64A12.39,12.39,0,0,0,71.72,42.49Z"/><path class="cls-1" d="M67.77,17.91a15.8,15.8,0,0,0,3.77-2.85,13.3,13.3,0,0,0,1.52-1.83c.23-.33.47-.64.68-1l.58-1c.39-.72.71-1.35,1.06-2a8.17,8.17,0,0,1,.56-1c.19-.3.4-.61.58-.92a21.1,21.1,0,0,1,2.89-3.3A17.58,17.58,0,0,1,83,1.54,15,15,0,0,1,87.25,0a12.23,12.23,0,0,0-4.54.81,16.19,16.19,0,0,0-4.1,2.28l-.91.75c-.3.26-.56.56-.84.83l-.42.42-.38.46-.75.91c-.23.32-.44.65-.66,1a9.41,9.41,0,0,0-.62,1c-.37.68-.76,1.4-1.1,2a16.76,16.76,0,0,1-5.79,6.38,20.71,20.71,0,0,1-8.35,3.06A16.43,16.43,0,0,0,67.77,17.91Z"/><path class="cls-1" d="M80.57,5.11l-.92.75c-.29.26-.56.55-.84.83l-.42.42L78,7.57l-.75.91c-.23.32-.44.65-.66,1a10.37,10.37,0,0,0-.62,1c-.37.69-.76,1.41-1.1,2a16.68,16.68,0,0,1-5.79,6.38,20.67,20.67,0,0,1-8.34,3.06,16.42,16.42,0,0,0,9-2,15.85,15.85,0,0,0,3.78-2.85A14.91,14.91,0,0,0,75,15.24c.22-.33.46-.64.68-1l.58-1c.39-.72.71-1.34,1-2a8.17,8.17,0,0,1,.56-1c.2-.31.4-.61.59-.92a20.11,20.11,0,0,1,2.88-3.3A18,18,0,0,1,85,3.54,15.65,15.65,0,0,1,89.2,2a12.52,12.52,0,0,0-4.54.82A16,16,0,0,0,80.57,5.11Z"/><path class="cls-1" d="M83.32,6.34l-.91.75c-.3.26-.56.55-.84.83l-.42.42-.38.45L80,9.71c-.23.32-.44.65-.66,1a7.93,7.93,0,0,0-.62,1c-.37.69-.76,1.41-1.11,2a16.67,16.67,0,0,1-5.79,6.38,20.76,20.76,0,0,1-8.34,3.06,16.38,16.38,0,0,0,9-2,15.65,15.65,0,0,0,3.78-2.85,14.61,14.61,0,0,0,1.52-1.83c.23-.33.47-.65.68-1l.58-1c.39-.72.71-1.34,1.06-2a7.51,7.51,0,0,1,.56-.94c.19-.31.39-.61.58-.93a21.49,21.49,0,0,1,2.88-3.29,18.31,18.31,0,0,1,3.62-2.52A15.84,15.84,0,0,1,92,3.24a12.44,12.44,0,0,0-4.54.82A16,16,0,0,0,83.32,6.34Z"/><path class="cls-1" d="M85.21,8.93l-.86.71c-.28.24-.52.51-.79.77l-.39.4-.35.42-.71.86-.62.91c-.2.31-.41.62-.58.95-.34.63-.71,1.31-1,1.88a15.66,15.66,0,0,1-5.42,6,19.61,19.61,0,0,1-7.81,2.86,15.36,15.36,0,0,0,8.4-1.87,15,15,0,0,0,3.54-2.67A14.47,14.47,0,0,0,80,18.42c.21-.31.44-.61.64-.92l.54-1c.37-.68.66-1.26,1-1.87a6.66,6.66,0,0,1,.52-.89l.55-.86A19.36,19.36,0,0,1,86,9.82a16.79,16.79,0,0,1,3.39-2.35,14.59,14.59,0,0,1,4-1.44A11.54,11.54,0,0,0,89,6.8,14.7,14.7,0,0,0,85.21,8.93Z"/><path class="cls-1" d="M88,10.56l-.86.7c-.28.24-.52.52-.79.78l-.39.39-.35.43-.71.85c-.21.3-.41.61-.62.92a9.86,9.86,0,0,0-.58.94c-.34.64-.71,1.32-1,1.89a15.64,15.64,0,0,1-5.42,6,19.2,19.2,0,0,1-7.81,2.86,15.27,15.27,0,0,0,8.4-1.87,14.74,14.74,0,0,0,3.54-2.66A14.57,14.57,0,0,0,82.76,20c.21-.31.44-.6.64-.92l.54-1c.37-.67.66-1.25,1-1.87a6.55,6.55,0,0,1,.52-.88l.55-.87a19.29,19.29,0,0,1,2.7-3.08,16.44,16.44,0,0,1,3.39-2.36,14.57,14.57,0,0,1,4-1.43,11.53,11.53,0,0,0-4.25.76A14.73,14.73,0,0,0,88,10.56Z"/><path class="cls-1" d="M90.31,12.18l-.86.7c-.27.24-.52.52-.78.77l-.39.4-.36.42-.71.86c-.21.3-.41.61-.61.92a7,7,0,0,0-.58.94c-.35.64-.71,1.31-1,1.89a15.71,15.71,0,0,1-5.42,6,19.35,19.35,0,0,1-7.81,2.86A15.25,15.25,0,0,0,80.15,26a14.84,14.84,0,0,0,3.54-2.67,13.56,13.56,0,0,0,1.42-1.71c.21-.31.44-.6.64-.92l.54-1c.37-.67.67-1.25,1-1.87A8.48,8.48,0,0,1,87.8,17c.19-.29.38-.58.55-.87a19.81,19.81,0,0,1,2.7-3.09,17.08,17.08,0,0,1,3.39-2.35,14.57,14.57,0,0,1,4-1.43,11.51,11.51,0,0,0-4.24.76A14.79,14.79,0,0,0,90.31,12.18Z"/><path class="cls-1" d="M83.39,27a13.87,13.87,0,0,0,3.23-2.44A12.17,12.17,0,0,0,87.92,23c.19-.28.4-.55.58-.84l.5-.89c.33-.61.61-1.14.9-1.71a8.06,8.06,0,0,1,.48-.8c.17-.27.34-.53.5-.8a17.9,17.9,0,0,1,2.47-2.82A15.18,15.18,0,0,1,96.45,13a12.84,12.84,0,0,1,3.62-1.31,10.42,10.42,0,0,0-3.89.7,13.44,13.44,0,0,0-3.51,1.95l-.78.64c-.25.22-.48.47-.72.71l-.36.36-.32.39-.65.78-.56.84a7.64,7.64,0,0,0-.53.86c-.32.59-.65,1.21-1,1.73a14.28,14.28,0,0,1-5,5.46,17.86,17.86,0,0,1-7.15,2.62A14.08,14.08,0,0,0,83.39,27Z"/><path class="cls-1" d="M85.34,29a13.46,13.46,0,0,0,3.23-2.44A12.89,12.89,0,0,0,89.87,25c.2-.28.4-.55.59-.84l.49-.89c.34-.61.61-1.15.9-1.71.14-.28.31-.54.48-.81l.51-.79a17.83,17.83,0,0,1,2.46-2.82A15.18,15.18,0,0,1,98.4,15,13.07,13.07,0,0,1,102,13.69a10.45,10.45,0,0,0-3.89.7,13.38,13.38,0,0,0-3.5,1.95l-.79.64c-.25.22-.48.47-.72.71l-.36.36-.32.39-.65.78-.56.84a7.64,7.64,0,0,0-.53.86l-.94,1.73a14.39,14.39,0,0,1-5,5.46,17.87,17.87,0,0,1-7.14,2.62A14.07,14.07,0,0,0,85.34,29Z"/><path class="cls-1" d="M87.62,30.73a13.72,13.72,0,0,0,3.24-2.44,12.17,12.17,0,0,0,1.3-1.57c.19-.28.4-.55.58-.84l.5-.88.9-1.71a7.2,7.2,0,0,1,.48-.81c.17-.27.34-.53.5-.8a18.36,18.36,0,0,1,2.47-2.82,15.18,15.18,0,0,1,3.1-2.15,12.89,12.89,0,0,1,3.61-1.31,10.4,10.4,0,0,0-3.88.7,13.74,13.74,0,0,0-3.51,1.95l-.78.64c-.26.22-.48.48-.72.71l-.36.36-.32.39-.65.78-.56.84a7.64,7.64,0,0,0-.53.86c-.32.59-.65,1.21-.95,1.73a14.16,14.16,0,0,1-5,5.46,17.61,17.61,0,0,1-7.14,2.62A14,14,0,0,0,87.62,30.73Z"/><path class="cls-1" d="M90.09,32.1a13.26,13.26,0,0,0,3-2.29,12.29,12.29,0,0,0,1.22-1.48c.18-.26.37-.51.54-.78l.47-.84.85-1.6a5.84,5.84,0,0,1,.45-.76c.15-.25.32-.49.47-.75A16.56,16.56,0,0,1,99.44,21a14,14,0,0,1,2.91-2,12.5,12.5,0,0,1,3.39-1.23,9.72,9.72,0,0,0-3.64.65,12.64,12.64,0,0,0-3.29,1.83l-.74.61c-.24.21-.45.44-.68.66l-.33.34-.3.37-.61.73-.53.79a6.07,6.07,0,0,0-.5.81l-.88,1.62a13.41,13.41,0,0,1-4.66,5.12,16.51,16.51,0,0,1-6.7,2.46A13.17,13.17,0,0,0,90.09,32.1Z"/><path class="cls-1" d="M104.23,20.29a12.39,12.39,0,0,0-3.18,1.76l-.7.58c-.23.21-.44.43-.66.65l-.32.32-.3.36-.58.7c-.18.25-.34.51-.51.77a7.62,7.62,0,0,0-.48.77c-.29.53-.59,1.1-.86,1.57a13,13,0,0,1-4.49,4.95,16.12,16.12,0,0,1-6.47,2.37,12.75,12.75,0,0,0,7-1.55,12.34,12.34,0,0,0,2.93-2.21,11.55,11.55,0,0,0,1.18-1.42c.17-.25.36-.5.53-.76l.45-.8c.3-.56.55-1,.81-1.55a6.87,6.87,0,0,1,.44-.74c.15-.24.31-.47.45-.72a16.44,16.44,0,0,1,2.24-2.55,13.81,13.81,0,0,1,2.81-1.95,11.84,11.84,0,0,1,3.27-1.19A9.53,9.53,0,0,0,104.23,20.29Z"/></g></g></svg>