<svg xmlns="http://www.w3.org/2000/svg" viewBox="0 0 56.73 72.36"><defs><style>.cls-1{fill:#fff;}</style></defs><title>Asset 15</title><g id="Layer_2" data-name="Layer 2"><g id="Layer_1-2" data-name="Layer 1"><ellipse class="cls-1" cx="38.29" cy="34.32" rx="6.92" ry="1.66" transform="translate(-0.93 67.58) rotate(-82.16)"/><ellipse class="cls-1" cx="32.42" cy="35.02" rx="1.66" ry="6.92" transform="translate(-8.77 10.92) rotate(-16.87)"/><ellipse class="cls-1" cx="31.66" cy="13.91" rx="6.92" ry="1.66" transform="translate(13.57 43.38) rotate(-82.16)"/><ellipse class="cls-1" cx="25.8" cy="14.61" rx="1.66" ry="6.92" transform="translate(-3.13 8.12) rotate(-16.87)"/><ellipse class="cls-1" cx="34.6" cy="22.78" rx="6.92" ry="1.66" transform="translate(7.32 53.95) rotate(-82.16)"/><ellipse class="cls-1" cx="25.98" cy="26.83" rx="1.66" ry="6.92" transform="translate(-6.67 8.69) rotate(-16.87)"/><ellipse class="cls-1" cx="33.19" cy="62.27" rx="6.92" ry="1.66" transform="translate(-33.02 86.67) rotate(-82.16)"/><ellipse class="cls-1" cx="27.33" cy="62.97" rx="1.66" ry="6.92" transform="translate(-17.1 10.64) rotate(-16.87)"/><ellipse class="cls-1" cx="26.57" cy="41.86" rx="6.92" ry="1.66" transform="translate(-18.52 62.47) rotate(-82.16)"/><ellipse class="cls-1" cx="20.7" cy="42.56" rx="1.66" ry="6.92" transform="translate(-11.46 7.84) rotate(-16.87)"/><ellipse class="cls-1" cx="29.51" cy="50.73" rx="6.92" ry="1.66" transform="translate(-24.77 73.04) rotate(-82.16)"/><ellipse class="cls-1" cx="20.88" cy="54.78" rx="1.66" ry="6.92" transform="translate(-15 8.42) rotate(-16.87)"/><ellipse class="cls-1" cx="48.53" cy="67.92" rx="1.66" ry="6.92" transform="translate(-34.88 64.58) rotate(-52.16)"/><ellipse class="cls-1" cx="53.21" cy="64.32" rx="1.66" ry="6.92" transform="matrix(0.89, -0.46, 0.46, 0.89, -23.67, 31.78)"/><ellipse class="cls-1" cx="39" cy="48.69" rx="1.66" ry="6.92" transform="translate(-23.37 49.63) rotate(-52.16)"/><ellipse class="cls-1" cx="43.69" cy="45.09" rx="1.66" ry="6.92" transform="translate(-15.87 25.22) rotate(-27.46)"/><ellipse class="cls-1" cx="43.1" cy="57.09" rx="1.66" ry="6.92" transform="translate(-28.42 56.11) rotate(-52.16)"/><ellipse class="cls-1" cx="52.1" cy="53.96" rx="1.66" ry="6.92" transform="translate(-19.01 30.1) rotate(-27.46)"/><ellipse class="cls-1" cx="15.08" cy="29.02" rx="1.66" ry="6.92" transform="translate(-17.09 23.13) rotate(-52.16)"/><ellipse class="cls-1" cx="19.77" cy="25.42" rx="1.66" ry="6.92" transform="translate(-9.49 11.98) rotate(-27.46)"/><ellipse class="cls-1" cx="5.56" cy="9.78" rx="1.66" ry="6.92" transform="translate(-5.58 8.17) rotate(-52.16)"/><ellipse class="cls-1" cx="10.24" cy="6.19" rx="1.66" ry="6.92" transform="translate(-1.7 5.42) rotate(-27.46)"/><ellipse class="cls-1" cx="9.66" cy="18.18" rx="1.66" ry="6.92" transform="matrix(0.61, -0.79, 0.79, 0.61, -10.63, 14.66)"/><ellipse class="cls-1" cx="18.66" cy="15.06" rx="1.66" ry="6.92" transform="translate(-4.84 10.3) rotate(-27.46)"/></g></g></svg>