<?xml version="1.0" encoding="utf-8"?>
<!-- Generator: Adobe Illustrator 23.0.0, SVG Export Plug-In . SVG Version: 6.00 Build 0)  -->
<svg version="1.1" id="Layer_1" xmlns="http://www.w3.org/2000/svg" xmlns:xlink="http://www.w3.org/1999/xlink" x="0px" y="0px"
	 viewBox="0 0 63.6 44.9" style="enable-background:new 0 0 63.6 44.9;" xml:space="preserve">
<style type="text/css">
	.st0{fill:#FFFFFF;}
</style>
<title>Asset 19</title>
<path class="st0" d="M4.6,30.8c0.2,0.3,0.5,0.5,0.8,0.5h52.7c0.3,0,0.6-0.2,0.8-0.5l3.8-6.5c0.2-0.5,0.1-1.1-0.4-1.3
	c-0.1-0.1-0.3-0.1-0.4-0.1H1.7c-0.6,0-1,0.5-0.9,1.1c0,0.1,0,0.3,0.1,0.4L4.6,30.8z"/>
<path class="st0" d="M61.3,34.4H2.4c-0.6,0-1,0.5-1,1c0,0.2,0,0.3,0.1,0.5l3.8,6.6C5.6,42.8,5.9,43,6.2,43h51.2
	c0.4,0,0.7-0.2,0.9-0.5l3.8-6.6c0.3-0.5,0.1-1.1-0.4-1.4C61.6,34.4,61.4,34.4,61.3,34.4z"/>
<path class="st0" d="M4.6,19.3c0.2,0.3,0.5,0.5,0.8,0.5h52.7c0.3,0,0.7-0.2,0.8-0.5l3.8-6.5c0.2-0.5,0.1-1.1-0.4-1.3
	c-0.1-0.1-0.3-0.1-0.4-0.1H1.7c-0.6,0-1,0.5-0.9,1.1c0,0.1,0,0.3,0.1,0.4L4.6,19.3z"/>
<path class="st0" d="M5.2,7.7C5.4,8,5.7,8.2,6,8.2h51.6c0.3,0,0.6-0.2,0.8-0.5l3.7-6.3c0.3-0.4,0.1-1-0.3-1.3C61.6,0,61.5,0,61.3,0
	H2.3c-0.5,0-0.9,0.4-1,0.9c0,0.2,0,0.3,0.1,0.5L5.2,7.7z"/>
</svg>
