<svg xmlns="http://www.w3.org/2000/svg" viewBox="0 0 73.17 57.62"><defs><style>.cls-1{fill:#fff;}</style></defs><title>Asset 22</title><g id="Layer_2" data-name="Layer 2"><g id="Layer_1-2" data-name="Layer 1"><rect class="cls-1" x="11.87" y="-2.22" width="8.62" height="39.67" rx="0.34" ry="0.34" transform="translate(-7.6 15.04) rotate(-41.26)"/><path class="cls-1" d="M60.28,32.89a16.76,16.76,0,0,0,2.65-.27c.51-.08,1-.17,1.51-.28L48.7,14.41a.34.34,0,0,0-.48,0l-6,5.23a.35.35,0,0,0,0,.48l9.84,11.22a.34.34,0,0,0,.3.11,7.34,7.34,0,0,1,2.29-.06,9.44,9.44,0,0,1,2.6.85A7.28,7.28,0,0,0,60.28,32.89Z"/><path class="cls-1" d="M65,34.83a.32.32,0,0,0-.31-.14c-.94.09-1.89.12-2.82.13A10.49,10.49,0,0,1,59,34.55a9.63,9.63,0,0,1-2.42-1.16,7,7,0,0,0-2.7-1,8,8,0,0,0-1.09,0l13.2,19a.33.33,0,0,0,.47.09L73,47a.35.35,0,0,0,.09-.47Z"/><path class="cls-1" d="M28.16,49.37a7.47,7.47,0,0,1,1.92-3.1A22,22,0,0,1,33.65,44l0-.57L8.28,24a.35.35,0,0,0-.48.06L3,30.41a.35.35,0,0,0,.07.48L28,49.91C28,49.73,28.1,49.55,28.16,49.37Z"/><path class="cls-1" d="M33.36,47.93a11.06,11.06,0,0,0-3.48,1.57,7.59,7.59,0,0,0-2,2.56.37.37,0,0,0,.05.39l4.44,5.06a.34.34,0,0,0,.48,0l6-5.24a.34.34,0,0,0,0-.48l-3.76-4.29a.34.34,0,0,0-.39-.08A11.18,11.18,0,0,1,33.36,47.93Z"/><path class="cls-1" d="M44.88,31.44a8.59,8.59,0,0,1,2.27-1l.41-.15L26,5.66a.34.34,0,0,0-.48,0l-6,5.24a.34.34,0,0,0,0,.48L41.35,36.27c.3-.37.59-.75.86-1.15.47-.69.89-1.41,1.34-2.12A5.26,5.26,0,0,1,44.88,31.44Z"/><path class="cls-1" d="M48.24,31.35a4.47,4.47,0,0,0-2.17,1.58c-.36.51-.66,1.06-1,1.59a24.93,24.93,0,0,1-1.45,2.08l-.14.18,3.44,3.91a.33.33,0,0,0,.48,0l6-5.24a.34.34,0,0,0,0-.48l-3.53-4a.35.35,0,0,0-.38-.1Z"/></g></g></svg>