<svg xmlns="http://www.w3.org/2000/svg" viewBox="0 0 53 52.17"><defs><style>.cls-1{fill:#fff;}</style></defs><title>Asset 24</title><g id="Layer_2" data-name="Layer 2"><g id="Layer_1-2" data-name="Layer 1"><path class="cls-1" d="M20.45,9.38l.35.14L16.15,20.76,28,18.38l-9.51-16A25.7,25.7,0,0,0,1.82,23.65L15.7,20.86Z"/><path class="cls-1" d="M49.74,13.16A25.66,25.66,0,0,0,18.83,1.45l9.54,16Z"/><path class="cls-1" d="M27.21,26.36l.38,0-.47,6.23,5.69-2.48L26.52,19.56,14.32,22,10,32.57l-.36-.14,4.27-10.32L.12,24.88C0,25.69,0,26.5,0,27.33a25.58,25.58,0,0,0,4.84,15l21.89-9.55Z"/><path class="cls-1" d="M28.75,32.21l-1.42,19-.38,0,1.4-18.81L6.73,41.82a25.66,25.66,0,0,0,37.54,4L34.66,29.63Z"/><path class="cls-1" d="M49.94,14.34,28.57,18.65l6.25,10.5,6-2.63.16.35-6,2.61,9.54,16a25.67,25.67,0,0,0,5.38-31.18ZM44.66,28.77l-12.26-8,.21-.32,12.26,8.05Z"/></g></g></svg>