<svg xmlns="http://www.w3.org/2000/svg" viewBox="0 0 53.25 42.81"><defs><style>.cls-1{fill:#fff;}</style></defs><title>Asset 14</title><g id="Layer_2" data-name="Layer 2"><g id="Layer_1-2" data-name="Layer 1"><path class="cls-1" d="M53.08,18.4C51,15.22,41.81,27.69,34.65,22.91S48.7.77,41.28,1.83c-7,1-10.22,19.23-13.27,18-3.22-1.26,2.66-14,1.73-17.77A2.47,2.47,0,0,0,25.63.63c-1.41,1-1.27,3.31-1,5,1.39,8.51,1.14,14.7-1.8,15.41-3.31.79-.13-11.28-7.29-17.91C11-1.08,8,3.54,12.9,8.59s7.69,13.79,5.17,15C14.47,25.28,16,17,7.59,12.17-.25,7.69-2,16.3,2.29,17.48a3.71,3.71,0,0,0,1.1.11C16.63,17,13.88,27.68,14.49,32.33c.79,6.1,4.81,10.48,11.07,10.48s10.28-6,12.67-11.54C41.47,23.69,54.88,21.11,53.08,18.4Z"/></g></g></svg>