<svg xmlns="http://www.w3.org/2000/svg" viewBox="0 0 95.42 64.7"><defs><style>.cls-1{fill:#fff;}</style></defs><title>Asset 21</title><g id="Layer_2" data-name="Layer 2"><g id="Layer_1-2" data-name="Layer 1"><path class="cls-1" d="M63.17,27.06C62.06,17.21,51.4,12.47,42.23,14.89a12.54,12.54,0,0,1-3.81.38h-.68a15,15,0,0,0-5.41,1,16.25,16.25,0,0,0-9.87,17,13.71,13.71,0,0,0,.64,2.58,6.71,6.71,0,0,0,.3.68c.9,1.85.45,3.7.27,5.47l-.06.47a8.29,8.29,0,0,0-1.47-.22c-.31,0-.6.22-.87-.08a7.28,7.28,0,0,0-8.07-3.07,7.91,7.91,0,0,0-5.64,7,7.41,7.41,0,0,0,.16,2.67c.06.24.13.48.19.71a2.22,2.22,0,0,1,0,1c0,.19-.08.38-.12.57s-.08.44-.11.65a2,2,0,0,1-.24.72c-1.34,2.45-2.37,5.3-1,8.14,2,4.07,6.73,4.69,10.61,3.54a2,2,0,0,1,1.31.06l.49.17a8,8,0,0,0,2.45.39A7.26,7.26,0,0,0,27,61.88a7.15,7.15,0,0,0,1.36-6.21A14,14,0,0,0,47.61,53.6a3.65,3.65,0,0,1,.27-.3,4.13,4.13,0,0,1,1.42-1.16,21.45,21.45,0,0,0,10.64-7.09,13.91,13.91,0,0,0,2.65-7.38,14.11,14.11,0,0,0-.09-2.6c-.22-1.77,1-2.94.74-4.71A22.67,22.67,0,0,0,63.17,27.06Z"/><path class="cls-1" d="M17.17,33.89a9.81,9.81,0,0,0,4.18-8.46v0a5.57,5.57,0,0,1,.88-3.3,11.55,11.55,0,0,0,2.1-4.8c.54-4.46-1.74-9-6.24-10.37a5.36,5.36,0,0,0-.54-.14,19.53,19.53,0,0,0-11.06.52C1.12,9.23-1.19,15.4.59,20.42a5.46,5.46,0,0,1,.22,2.83v0a10.36,10.36,0,0,0,5,10.79C9.32,35.91,13.73,36.31,17.17,33.89Z"/><path class="cls-1" d="M62.88,18.35a7.71,7.71,0,0,0,1.49.59,7.85,7.85,0,0,0,1.61.27A8.62,8.62,0,0,0,74.59,13a8.16,8.16,0,0,0,.3-2.32A8.51,8.51,0,0,0,71.42,4.1a9.54,9.54,0,0,0-1.65-1C66.61,1,63.06-.85,59.3.4a9.1,9.1,0,0,0-5.85,10.45C54.49,15.66,58.88,16.91,62.88,18.35Z"/><path class="cls-1" d="M83.72,19.25l-.42-.07c-.51-.12-1-.22-1.55-.32a13,13,0,0,0-9,1.41c-4.18,2.5-6,7.17-6.48,11.89l0,.32A6.23,6.23,0,0,1,65.48,35a10.93,10.93,0,0,0-.57,10.24c3,6.17,10.29,7.09,16.09,5.08A5.85,5.85,0,0,1,83,50h.66A9.19,9.19,0,0,0,86,49.69a13.53,13.53,0,0,0,1.93-.6c4.25-1.41,6.77-5.41,7.25-9.64a14.06,14.06,0,0,0,.08-2.05,6.68,6.68,0,0,1,0-1C96.14,28.65,92,20.42,83.72,19.25Z"/></g></g></svg>