<svg xmlns="http://www.w3.org/2000/svg" viewBox="0 0 55.94 54.43"><defs><style>.cls-1{fill:#fff;}</style></defs><title>Asset 20</title><g id="Layer_2" data-name="Layer 2"><g id="Layer_1-2" data-name="Layer 1"><path class="cls-1" d="M52.46,12.14A28,28,0,0,0,39.11,1C31.28-1.69,22,1,13.62,8.46c-.8.74-1.63,1.46-2.5,2.23C6.7,14.58,1.69,19,.37,25.28c-1.62,8.89,2.19,17.44,9.46,21.26L12,47.75c5.94,3.3,12,6.68,18.49,6.68a17.77,17.77,0,0,0,6.68-1.3,23.38,23.38,0,0,0,11-8.92,55.86,55.86,0,0,0,6.35-12.9h0a25.59,25.59,0,0,0,.75-2.56A21.21,21.21,0,0,0,52.46,12.14Zm2.1,16.42c-.19.8-.43,1.61-.73,2.49-3,8.1-7.56,17.85-16.92,21.36-8.66,3.47-16.72-1-24.51-5.33l-2.2-1.22C3.22,42.19-.43,34,1.13,25.43c1.27-6,6-10.17,10.5-14.16.88-.77,1.7-1.5,2.51-2.24C20.23,3.62,26.79.77,32.87.77a18.15,18.15,0,0,1,6,1C51.74,6.83,57,19.36,54.56,28.56Z"/><path class="cls-1" d="M16.57,25.12a10.23,10.23,0,0,0-7.93.39,8.35,8.35,0,0,0-5.22,6.81C3,37.19,6.76,41.28,11.15,43a9.76,9.76,0,0,0,9.07-1.29,8.86,8.86,0,0,0,1.46-1.25C26.59,35.44,22.84,27.46,16.57,25.12Z"/></g></g></svg>