<svg xmlns="http://www.w3.org/2000/svg" viewBox="0 0 126.31 33.89"><defs><style>.cls-1{fill:#fff;}</style></defs><title>Asset 27</title><g id="Layer_2" data-name="Layer 2"><g id="Layer_1-2" data-name="Layer 1"><path class="cls-1" d="M13.87,9.2l.25-.06a15.3,15.3,0,0,0,2.23-.73c.33-.14.67-.27,1-.42l.27-.13.95-.51c.74-.41,1.36-.78,2-1.16a8.68,8.68,0,0,1,1-.51l.9-.42.26-.12A21.17,21.17,0,0,1,27,3.91a19,19,0,0,1,4.59-.22,16.77,16.77,0,0,1,4.6,1A13.13,13.13,0,0,0,31.7,2.91a17.06,17.06,0,0,0-4.89-.25l-1.23.15c-.4.07-.8.18-1.2.26l-.6.14-.58.19-1.08.35-.76.32a14.67,14.67,0,0,0-1.55.74c-.7.38-1.44.8-2.08,1.14A17.54,17.54,0,0,1,9.1,8.33,22.18,22.18,0,0,1,0,6.46,17.5,17.5,0,0,0,9.08,9.59,16.76,16.76,0,0,0,13.87,9.2Z"/><path class="cls-1" d="M15.48,11.63l.26-.06A15.58,15.58,0,0,0,18,10.84l1-.41.27-.14.95-.51,2-1.15a8,8,0,0,1,1-.52l.9-.42.26-.11a21.19,21.19,0,0,1,4.23-1.24,19.51,19.51,0,0,1,4.59-.22,16.43,16.43,0,0,1,4.6,1,13.14,13.14,0,0,0-4.49-1.75,17,17,0,0,0-4.89-.25l-1.22.16c-.41.06-.81.17-1.21.26l-.6.14-.58.18-1.08.35L23,6.5c-.52.25-1.06.45-1.55.74-.7.39-1.44.8-2.08,1.14a17.65,17.65,0,0,1-8.63,2.39A22.35,22.35,0,0,1,1.61,8.9,17.58,17.58,0,0,0,10.69,12,16.41,16.41,0,0,0,15.48,11.63Z"/><path class="cls-1" d="M17.09,14.06l.26-.06a13.41,13.41,0,0,0,2.22-.73c.33-.14.67-.26,1-.41l.27-.13.95-.52,2-1.15a8,8,0,0,1,1-.51l.9-.42A1.51,1.51,0,0,1,26,10a21.88,21.88,0,0,1,4.23-1.24,19,19,0,0,1,4.59-.21,16.77,16.77,0,0,1,4.6,1,13.14,13.14,0,0,0-4.49-1.75A16.69,16.69,0,0,0,30,7.53l-1.22.15c-.41.06-.8.17-1.21.26l-.6.14-.58.19-1.07.35-.77.31c-.52.25-1.06.45-1.55.74-.7.39-1.44.81-2.08,1.15a17.75,17.75,0,0,1-8.63,2.38,22.35,22.35,0,0,1-9.1-1.87,17.59,17.59,0,0,0,9.08,3.13A16.77,16.77,0,0,0,17.09,14.06Z"/><path class="cls-1" d="M18.7,16.5l.26-.07a14.38,14.38,0,0,0,2.22-.72c.33-.14.67-.27,1-.42a1.69,1.69,0,0,0,.27-.13l.95-.51c.74-.41,1.36-.78,2-1.16a9.55,9.55,0,0,1,1-.51l.9-.42.26-.12a21.17,21.17,0,0,1,4.23-1.23A19,19,0,0,1,36.42,11,16.77,16.77,0,0,1,41,12a13.13,13.13,0,0,0-4.49-1.74A17,17,0,0,0,31.64,10l-1.22.15c-.41.07-.8.18-1.21.26l-.6.14L28,10.7,27,11.05l-.77.32a16.88,16.88,0,0,0-1.55.73c-.7.39-1.44.81-2.08,1.15a17.54,17.54,0,0,1-8.63,2.38,22.18,22.18,0,0,1-9.1-1.87,17.5,17.5,0,0,0,9.08,3.13A17.13,17.13,0,0,0,18.7,16.5Z"/><path class="cls-1" d="M20.31,18.93l.26-.06a15.58,15.58,0,0,0,2.22-.73l1-.41a1.71,1.71,0,0,0,.27-.14l1-.51c.74-.41,1.37-.77,2-1.16a9.55,9.55,0,0,1,1-.51L29,15l.26-.11a21.19,21.19,0,0,1,4.23-1.24A19.54,19.54,0,0,1,38,13.42a16.77,16.77,0,0,1,4.6,1,13.33,13.33,0,0,0-4.49-1.74,17,17,0,0,0-4.89-.25L32,12.55c-.41.06-.8.17-1.21.26l-.6.14-.58.18-1.07.35-.77.32c-.52.25-1.06.45-1.55.74-.7.39-1.44.8-2.08,1.14a17.65,17.65,0,0,1-8.63,2.39,22.35,22.35,0,0,1-9.1-1.87,17.58,17.58,0,0,0,9.08,3.12A16.76,16.76,0,0,0,20.31,18.93Z"/><path class="cls-1" d="M21.92,21.36l.26-.06a13.41,13.41,0,0,0,2.22-.73c.34-.14.68-.26,1-.41a1.71,1.71,0,0,0,.27-.14l.95-.51,2-1.15a8,8,0,0,1,1-.51l.9-.43.26-.11a21.88,21.88,0,0,1,4.23-1.24,19,19,0,0,1,4.59-.21,16.77,16.77,0,0,1,4.6,1,13.14,13.14,0,0,0-4.49-1.75,16.69,16.69,0,0,0-4.89-.24L33.64,15c-.41.06-.8.17-1.21.26l-.6.14-.58.19-1.07.35-.77.31c-.52.25-1.06.45-1.55.74-.7.39-1.44.81-2.08,1.15a17.72,17.72,0,0,1-8.63,2.38,22.35,22.35,0,0,1-9.1-1.87,17.58,17.58,0,0,0,9.08,3.12A16.41,16.41,0,0,0,21.92,21.36Z"/><path class="cls-1" d="M23.54,23.79l.25-.06A14.38,14.38,0,0,0,26,23c.34-.14.68-.27,1-.42l.28-.13.94-.51c.74-.41,1.37-.78,2-1.16a9.55,9.55,0,0,1,1-.51l.9-.42.26-.12a21.36,21.36,0,0,1,4.23-1.23,19,19,0,0,1,4.59-.22,16.77,16.77,0,0,1,4.6,1,13.13,13.13,0,0,0-4.49-1.74,17,17,0,0,0-4.89-.25l-1.22.15c-.41.07-.8.18-1.2.26l-.61.14-.58.19-1.07.35-.77.32a16.88,16.88,0,0,0-1.55.73c-.7.39-1.44.81-2.08,1.15a17.61,17.61,0,0,1-8.63,2.38,22.18,22.18,0,0,1-9.1-1.87,17.54,17.54,0,0,0,9.09,3.13A16.83,16.83,0,0,0,23.54,23.79Z"/><path class="cls-1" d="M25.15,26.23l.25-.06a15.58,15.58,0,0,0,2.22-.73l1-.41.27-.14.94-.51c.74-.41,1.37-.77,2-1.16a9.55,9.55,0,0,1,1-.51l.9-.42.26-.12a22.06,22.06,0,0,1,4.23-1.23,19.54,19.54,0,0,1,4.59-.22,16.77,16.77,0,0,1,4.6,1A13.33,13.33,0,0,0,43,19.94a17,17,0,0,0-4.89-.25l-1.22.15c-.41.07-.8.18-1.2.27l-.6.13-.59.19-1.07.35-.77.32c-.51.25-1.06.44-1.55.74-.7.39-1.44.8-2.08,1.14a17.62,17.62,0,0,1-8.63,2.39,22.51,22.51,0,0,1-9.1-1.87,17.62,17.62,0,0,0,9.09,3.12A16.82,16.82,0,0,0,25.15,26.23Z"/><path class="cls-1" d="M26.76,28.66,27,28.6a15.58,15.58,0,0,0,2.22-.73l1-.41.27-.14.94-.51,2-1.15a9.63,9.63,0,0,1,1-.52c.3-.14.6-.27.9-.42l.26-.11a22.08,22.08,0,0,1,4.23-1.24,19,19,0,0,1,4.59-.21,16.77,16.77,0,0,1,4.6,1,13.14,13.14,0,0,0-4.49-1.75,17,17,0,0,0-4.89-.25l-1.22.16c-.41.06-.8.17-1.2.26l-.6.14-.59.19L35,23.21l-.77.32c-.51.25-1.06.45-1.55.74-.7.39-1.44.8-2.08,1.14A17.62,17.62,0,0,1,22,27.8a22.35,22.35,0,0,1-9.1-1.87A17.62,17.62,0,0,0,22,29.05,16.47,16.47,0,0,0,26.76,28.66Z"/><path class="cls-1" d="M28.37,31.09a1.14,1.14,0,0,0,.25-.06,13.41,13.41,0,0,0,2.22-.73c.34-.13.68-.26,1-.41l.27-.13.94-.51c.74-.41,1.37-.78,2-1.16a8,8,0,0,1,1-.51l.9-.42.26-.12a21.36,21.36,0,0,1,4.23-1.23,19,19,0,0,1,4.59-.22,16.7,16.7,0,0,1,4.6,1,13.14,13.14,0,0,0-4.49-1.75,17,17,0,0,0-4.89-.24l-1.22.15c-.41.07-.8.18-1.2.26l-.6.14-.59.19-1.07.35-.77.32c-.51.24-1.06.44-1.55.73-.7.39-1.44.81-2.08,1.15a17.72,17.72,0,0,1-8.63,2.38,22.18,22.18,0,0,1-9.1-1.87,17.63,17.63,0,0,0,9.09,3.13A16.83,16.83,0,0,0,28.37,31.09Z"/><path class="cls-1" d="M42.59,26.92l-1.23.15c-.4.07-.8.18-1.2.26l-.6.14-.58.19L37.9,28l-.76.32a14.67,14.67,0,0,0-1.55.74c-.7.38-1.44.8-2.08,1.14a17.54,17.54,0,0,1-8.63,2.38,22.33,22.33,0,0,1-9.1-1.86,17.58,17.58,0,0,0,9.08,3.12,16.76,16.76,0,0,0,4.79-.39l.25-.06a15.3,15.3,0,0,0,2.23-.73c.33-.14.67-.27,1-.42l.27-.13,1-.51c.74-.41,1.36-.78,2-1.16a8.68,8.68,0,0,1,1-.51l.9-.42.26-.12a21.85,21.85,0,0,1,4.23-1.23A19,19,0,0,1,47.37,28a16.77,16.77,0,0,1,4.6,1,13.33,13.33,0,0,0-4.49-1.74A17.06,17.06,0,0,0,42.59,26.92Z"/><path class="cls-1" d="M46.25,8.3A16.77,16.77,0,0,0,51,7.9a1.22,1.22,0,0,0,.26-.06,13.41,13.41,0,0,0,2.22-.73c.33-.14.67-.26,1-.41l.27-.13,1-.51c.74-.41,1.36-.78,2-1.16a8,8,0,0,1,1-.51l.9-.42.26-.12a21.17,21.17,0,0,1,4.23-1.23,19,19,0,0,1,4.59-.22,16.77,16.77,0,0,1,4.6,1,13.14,13.14,0,0,0-4.49-1.75A17,17,0,0,0,64,1.37l-1.22.15c-.41.06-.8.18-1.21.26l-.6.14-.58.19-1.07.35-.77.32A16.88,16.88,0,0,0,57,3.51c-.7.39-1.44.81-2.08,1.15A17.75,17.75,0,0,1,46.27,7a22.18,22.18,0,0,1-9.1-1.87A17.59,17.59,0,0,0,46.25,8.3Z"/><path class="cls-1" d="M52.91,10.28a15.58,15.58,0,0,0,2.22-.73c.34-.14.67-.27,1-.42A1.69,1.69,0,0,0,56.4,9l1-.51c.74-.41,1.37-.78,2-1.16a9.55,9.55,0,0,1,1-.51l.9-.42.26-.12a21.85,21.85,0,0,1,4.23-1.23,19,19,0,0,1,4.59-.22,16.77,16.77,0,0,1,4.6,1,13.33,13.33,0,0,0-4.49-1.74,17,17,0,0,0-4.89-.25L64.37,4c-.41.07-.8.18-1.21.26l-.6.14L62,4.54l-1.07.35-.77.32A14.67,14.67,0,0,0,58.59,6c-.7.38-1.44.8-2.08,1.14a17.54,17.54,0,0,1-8.63,2.38,22.33,22.33,0,0,1-9.1-1.86,17.58,17.58,0,0,0,9.08,3.12,16.76,16.76,0,0,0,4.79-.39Z"/><path class="cls-1" d="M49.47,13.16a16.41,16.41,0,0,0,4.79-.39l.26-.06A15.58,15.58,0,0,0,56.74,12l1-.41a1.71,1.71,0,0,0,.27-.14l1-.51,2-1.15a8,8,0,0,1,1-.52c.3-.14.6-.27.9-.42l.26-.11a21.19,21.19,0,0,1,4.23-1.24A19.54,19.54,0,0,1,72,7.26a16.43,16.43,0,0,1,4.6,1,13.14,13.14,0,0,0-4.49-1.75,17,17,0,0,0-4.89-.25L66,6.39c-.41.06-.8.17-1.21.26l-.6.14L63.59,7l-1.07.35-.77.32c-.52.25-1.06.45-1.55.74-.7.39-1.44.8-2.08,1.14a17.62,17.62,0,0,1-8.63,2.39A22.35,22.35,0,0,1,40.39,10,17.58,17.58,0,0,0,49.47,13.16Z"/><path class="cls-1" d="M51.09,15.6a16.83,16.83,0,0,0,4.79-.4l.25-.06a13.41,13.41,0,0,0,2.22-.73c.34-.14.68-.26,1-.41l.28-.13.94-.52,2-1.15a8,8,0,0,1,1-.51l.9-.42a1.51,1.51,0,0,1,.26-.12A21.36,21.36,0,0,1,69,9.92a18.52,18.52,0,0,1,4.59-.22,16.77,16.77,0,0,1,4.6,1A13.14,13.14,0,0,0,73.7,8.91a16.69,16.69,0,0,0-4.89-.24l-1.22.15c-.41.06-.8.17-1.2.26l-.61.14-.58.19-1.07.35-.77.31c-.52.25-1.06.45-1.55.74-.7.39-1.44.81-2.08,1.15a17.72,17.72,0,0,1-8.63,2.38A22.18,22.18,0,0,1,42,12.47,17.63,17.63,0,0,0,51.09,15.6Z"/><path class="cls-1" d="M52.7,18a16.82,16.82,0,0,0,4.79-.39l.25-.06A15.58,15.58,0,0,0,60,16.85c.34-.14.68-.27,1-.42l.27-.13.94-.51c.74-.41,1.37-.78,2-1.16a9.55,9.55,0,0,1,1-.51l.9-.42.26-.12a21.36,21.36,0,0,1,4.23-1.23,19,19,0,0,1,4.59-.22,16.77,16.77,0,0,1,4.6,1,13.13,13.13,0,0,0-4.49-1.74,17,17,0,0,0-4.89-.25l-1.22.15c-.41.07-.8.18-1.2.26l-.6.14-.59.19-1.07.35-.77.32a15.68,15.68,0,0,0-1.55.74c-.7.38-1.44.8-2.08,1.14a17.51,17.51,0,0,1-8.63,2.38,22.18,22.18,0,0,1-9.1-1.87A17.54,17.54,0,0,0,52.7,18Z"/><path class="cls-1" d="M54.31,20.46a16.47,16.47,0,0,0,4.79-.39l.25-.06a15.58,15.58,0,0,0,2.22-.73l1-.41.27-.14.94-.51,2-1.15a8,8,0,0,1,1-.52c.3-.14.6-.27.9-.42L68,16a21.39,21.39,0,0,1,4.23-1.24,19.54,19.54,0,0,1,4.59-.22,16.43,16.43,0,0,1,4.6,1,13.14,13.14,0,0,0-4.49-1.75A17,17,0,0,0,72,13.53l-1.22.16c-.41.06-.8.17-1.2.26l-.6.14-.59.18-1.07.35-.77.32c-.51.25-1.06.45-1.55.74-.7.39-1.44.8-2.08,1.14a17.62,17.62,0,0,1-8.63,2.39,22.35,22.35,0,0,1-9.1-1.87A17.62,17.62,0,0,0,54.31,20.46Z"/><path class="cls-1" d="M55.92,22.9a16.83,16.83,0,0,0,4.79-.4l.25-.06a13.41,13.41,0,0,0,2.22-.73c.34-.14.68-.26,1-.41l.27-.13.94-.52,2-1.15a8,8,0,0,1,1-.51l.9-.42.26-.12a22.08,22.08,0,0,1,4.23-1.24A19,19,0,0,1,78.42,17,16.7,16.7,0,0,1,83,18a13.14,13.14,0,0,0-4.49-1.75A16.69,16.69,0,0,0,73.64,16l-1.22.15c-.41.06-.8.17-1.2.26l-.6.14-.59.19L69,17.06l-.77.31c-.51.25-1.06.45-1.55.74-.7.39-1.44.81-2.08,1.15a17.72,17.72,0,0,1-8.63,2.38,22.35,22.35,0,0,1-9.1-1.87A17.63,17.63,0,0,0,55.92,22.9Z"/><path class="cls-1" d="M57.53,25.33a17.19,17.19,0,0,0,4.79-.39l.25-.07a14.85,14.85,0,0,0,2.23-.72c.33-.14.67-.27,1-.42l.27-.13,1-.51c.74-.41,1.36-.78,2-1.16a9.55,9.55,0,0,1,1-.51L71,21l.26-.12a21.36,21.36,0,0,1,4.23-1.23A19,19,0,0,1,80,19.43a16.7,16.7,0,0,1,4.6,1,13.13,13.13,0,0,0-4.49-1.74,17,17,0,0,0-4.89-.25L74,18.55c-.41.07-.8.18-1.2.26l-.6.14-.59.19-1.07.35-.77.32c-.51.24-1.06.44-1.55.73-.7.39-1.44.81-2.08,1.15a17.51,17.51,0,0,1-8.63,2.38,22.25,22.25,0,0,1-9.1-1.87A17.54,17.54,0,0,0,57.53,25.33Z"/><path class="cls-1" d="M59.14,27.76a16.82,16.82,0,0,0,4.79-.39l.25-.06a15.71,15.71,0,0,0,2.23-.73l1-.41.27-.14.95-.51c.74-.41,1.36-.77,2-1.16a9.55,9.55,0,0,1,1-.51c.3-.14.61-.27.9-.42l.26-.11a21.39,21.39,0,0,1,4.23-1.24,19.6,19.6,0,0,1,4.6-.22,16.71,16.71,0,0,1,4.59,1,13.33,13.33,0,0,0-4.49-1.74,17,17,0,0,0-4.89-.25L75.64,21c-.41.06-.8.17-1.2.26l-.6.14-.59.18-1.07.35-.77.32c-.51.25-1.06.45-1.54.74l-2.09,1.14a17.62,17.62,0,0,1-8.63,2.39,22.33,22.33,0,0,1-9.09-1.87A17.55,17.55,0,0,0,59.14,27.76Z"/><path class="cls-1" d="M60.75,30.19a16.47,16.47,0,0,0,4.79-.39l.25-.06A13.22,13.22,0,0,0,68,29c.33-.14.67-.26,1-.41l.27-.14.95-.51c.74-.41,1.36-.77,2-1.15a8,8,0,0,1,1-.51c.3-.15.61-.28.9-.43l.27-.11a21.78,21.78,0,0,1,4.22-1.24,19.1,19.1,0,0,1,4.6-.21,16.71,16.71,0,0,1,4.59,1,13.14,13.14,0,0,0-4.49-1.75,16.67,16.67,0,0,0-4.89-.24l-1.22.15c-.41.06-.8.17-1.2.26l-.6.14-.59.19-1.07.34-.77.32c-.51.25-1.06.45-1.54.74-.71.39-1.45.81-2.09,1.15a17.69,17.69,0,0,1-8.63,2.38,22.33,22.33,0,0,1-9.09-1.87A17.55,17.55,0,0,0,60.75,30.19Z"/><path class="cls-1" d="M79.76,25.63l-1.22.15c-.41.07-.8.18-1.21.26l-.6.14-.58.19-1.07.35-.77.32a16.88,16.88,0,0,0-1.55.73c-.7.39-1.44.81-2.08,1.15a17.75,17.75,0,0,1-8.63,2.38A22.18,22.18,0,0,1,53,29.43,17.59,17.59,0,0,0,62,32.56a16.77,16.77,0,0,0,4.79-.4,1.22,1.22,0,0,0,.26-.06,13.41,13.41,0,0,0,2.22-.73c.33-.13.67-.26,1-.41a1.69,1.69,0,0,0,.27-.13l1-.51c.74-.41,1.36-.78,2-1.16a9.55,9.55,0,0,1,1-.51l.9-.42.26-.12A21.17,21.17,0,0,1,80,26.88a19,19,0,0,1,4.59-.22,16.77,16.77,0,0,1,4.6,1,13.14,13.14,0,0,0-4.49-1.75A17,17,0,0,0,79.76,25.63Z"/><path class="cls-1" d="M83.43,7a16.47,16.47,0,0,0,4.79-.39l.25-.06a13.41,13.41,0,0,0,2.22-.73c.34-.14.68-.26,1-.41A1.71,1.71,0,0,0,92,5.27l1-.51,2-1.15a9.63,9.63,0,0,1,1-.52l.9-.42.26-.11a22.08,22.08,0,0,1,4.23-1.24,19,19,0,0,1,4.59-.21,16.77,16.77,0,0,1,4.6,1A13.14,13.14,0,0,0,106,.32a17,17,0,0,0-4.89-.25L99.93.23c-.41.06-.8.17-1.2.26l-.61.14-.58.19-1.07.34-.77.32c-.52.25-1.06.45-1.55.74-.7.39-1.44.81-2.08,1.15a17.72,17.72,0,0,1-8.63,2.38,22.35,22.35,0,0,1-9.1-1.87A17.62,17.62,0,0,0,83.43,7Z"/><path class="cls-1" d="M102.76,2.51l-1.22.15c-.41.07-.8.18-1.2.26l-.61.14-.58.19-1.07.35-.77.32c-.51.24-1.06.44-1.55.73-.7.39-1.44.81-2.08,1.15a17.61,17.61,0,0,1-8.63,2.38A22.18,22.18,0,0,1,76,6.31,17.63,17.63,0,0,0,85,9.44,16.83,16.83,0,0,0,89.83,9L90.08,9a14.38,14.38,0,0,0,2.22-.72c.34-.14.68-.27,1-.42l.27-.13.94-.51c.74-.41,1.37-.78,2-1.16a9.55,9.55,0,0,1,1-.51l.9-.42L98.72,5A21.36,21.36,0,0,1,103,3.76a19,19,0,0,1,4.59-.22,16.77,16.77,0,0,1,4.6,1,13.14,13.14,0,0,0-4.49-1.75A17.4,17.4,0,0,0,102.76,2.51Z"/><path class="cls-1" d="M104.37,4.94l-1.22.15c-.41.07-.8.18-1.2.27l-.6.13-.59.19L99.69,6l-.77.32a15.68,15.68,0,0,0-1.55.74c-.7.39-1.44.8-2.08,1.14a17.62,17.62,0,0,1-8.63,2.39,22.51,22.51,0,0,1-9.1-1.87,17.62,17.62,0,0,0,9.09,3.12,16.82,16.82,0,0,0,4.79-.39l.25-.06a15.58,15.58,0,0,0,2.22-.73l1-.41.27-.14.94-.51c.74-.41,1.37-.78,2-1.16a9.55,9.55,0,0,1,1-.51l.9-.42.26-.12a22.06,22.06,0,0,1,4.23-1.23A19.54,19.54,0,0,1,109.15,6a16.77,16.77,0,0,1,4.6,1,13.33,13.33,0,0,0-4.49-1.74A17,17,0,0,0,104.37,4.94Z"/><path class="cls-1" d="M106,7.37l-1.22.16c-.41.06-.8.17-1.2.26l-.6.14-.59.19-1.07.34-.77.32c-.51.25-1.06.45-1.55.74-.7.39-1.44.8-2.08,1.14a17.62,17.62,0,0,1-8.63,2.39,22.35,22.35,0,0,1-9.1-1.87,17.62,17.62,0,0,0,9.09,3.12,16.47,16.47,0,0,0,4.79-.39l.25-.06a15.58,15.58,0,0,0,2.22-.73l1-.41.27-.14.94-.51,2-1.15a8,8,0,0,1,1-.52l.9-.42.26-.11a22.08,22.08,0,0,1,4.23-1.24,19,19,0,0,1,4.59-.21,16.7,16.7,0,0,1,4.6,1,13.14,13.14,0,0,0-4.49-1.75A17,17,0,0,0,106,7.37Z"/><path class="cls-1" d="M107.59,9.81l-1.22.15c-.41.06-.8.18-1.2.26l-.6.14-.59.19-1.07.35-.77.32c-.51.24-1.06.44-1.55.73-.7.39-1.44.81-2.08,1.15a17.72,17.72,0,0,1-8.63,2.38,22.25,22.25,0,0,1-9.1-1.87,17.63,17.63,0,0,0,9.09,3.13,16.83,16.83,0,0,0,4.79-.4,1.14,1.14,0,0,0,.25-.06,13.84,13.84,0,0,0,2.23-.73c.33-.14.67-.26,1-.41l.27-.13,1-.51c.74-.41,1.36-.78,2-1.16a8,8,0,0,1,1-.51l.9-.42.26-.12a21.36,21.36,0,0,1,4.23-1.23,19.07,19.07,0,0,1,4.6-.22,16.71,16.71,0,0,1,4.59,1,13.14,13.14,0,0,0-4.49-1.75A17,17,0,0,0,107.59,9.81Z"/><path class="cls-1" d="M109.2,12.24l-1.22.15c-.41.07-.8.18-1.2.26l-.6.14-.59.19-1.07.35-.77.32a14.52,14.52,0,0,0-1.54.74l-2.09,1.14a17.51,17.51,0,0,1-8.63,2.38,22.32,22.32,0,0,1-9.09-1.86,17.55,17.55,0,0,0,9.08,3.12,16.82,16.82,0,0,0,4.79-.39l.25-.06A15.71,15.71,0,0,0,98.75,18c.33-.14.67-.27,1-.42l.27-.13,1-.51c.74-.41,1.36-.78,2-1.16a9.55,9.55,0,0,1,1-.51l.9-.42.26-.12a22.06,22.06,0,0,1,4.23-1.23,19.07,19.07,0,0,1,4.6-.22,16.71,16.71,0,0,1,4.59,1,13.33,13.33,0,0,0-4.49-1.74A17,17,0,0,0,109.2,12.24Z"/><path class="cls-1" d="M110.81,14.67l-1.22.16c-.41.06-.8.17-1.2.26l-.6.14-.59.18-1.07.35-.77.32c-.51.25-1.06.45-1.54.74L101.73,18a17.59,17.59,0,0,1-8.63,2.39A22.33,22.33,0,0,1,84,18.48a17.55,17.55,0,0,0,9.08,3.12,16.47,16.47,0,0,0,4.79-.39l.25-.06a15.3,15.3,0,0,0,2.23-.73l1-.41.27-.14,1-.51c.74-.41,1.36-.77,2-1.15a8,8,0,0,1,1-.52c.3-.14.61-.27.9-.42l.27-.11A21.1,21.1,0,0,1,111,15.92a19.62,19.62,0,0,1,4.6-.22,16.36,16.36,0,0,1,4.59,1,13.14,13.14,0,0,0-4.49-1.75A17,17,0,0,0,110.81,14.67Z"/><path class="cls-1" d="M112.42,17.11l-1.22.15c-.4.06-.8.17-1.2.26l-.6.14-.59.19-1.07.35-.77.31c-.51.25-1.06.45-1.54.74-.71.39-1.45.81-2.09,1.15a17.69,17.69,0,0,1-8.63,2.38,22.17,22.17,0,0,1-9.09-1.87A17.56,17.56,0,0,0,94.7,24a16.83,16.83,0,0,0,4.79-.4,1.14,1.14,0,0,0,.25-.06,13.22,13.22,0,0,0,2.23-.73c.33-.14.67-.26,1-.41l.27-.13,1-.52c.74-.41,1.36-.77,2-1.15a8,8,0,0,1,1-.51l.9-.42a1.59,1.59,0,0,1,.27-.12,21.08,21.08,0,0,1,4.22-1.23,18.6,18.6,0,0,1,4.6-.22,16.71,16.71,0,0,1,4.59,1,13.14,13.14,0,0,0-4.49-1.75A16.67,16.67,0,0,0,112.42,17.11Z"/><path class="cls-1" d="M114,19.54l-1.22.15c-.4.07-.8.18-1.2.26l-.6.14-.59.19-1.07.35-.77.32a15.52,15.52,0,0,0-1.54.74L105,22.83a17.54,17.54,0,0,1-8.64,2.38,22.17,22.17,0,0,1-9.09-1.87,17.47,17.47,0,0,0,9.08,3.13,16.79,16.79,0,0,0,4.79-.39l.25-.06a15.3,15.3,0,0,0,2.23-.73c.33-.14.67-.27,1-.42l.27-.13,1-.51c.74-.41,1.36-.78,2-1.16a9.7,9.7,0,0,1,1-.51l.89-.42L110,22a21.27,21.27,0,0,1,4.22-1.23,19.1,19.1,0,0,1,4.6-.22,16.71,16.71,0,0,1,4.59,1,13.13,13.13,0,0,0-4.49-1.74A17,17,0,0,0,114,19.54Z"/><path class="cls-1" d="M115.65,22l-1.23.16c-.4.06-.8.17-1.2.26l-.6.14-.59.18-1.07.35-.77.32c-.51.25-1,.45-1.54.74l-2.08,1.14a17.66,17.66,0,0,1-8.64,2.39,22.33,22.33,0,0,1-9.09-1.87,17.55,17.55,0,0,0,9.08,3.12,16.44,16.44,0,0,0,4.79-.39l.25-.06a15.3,15.3,0,0,0,2.23-.73l1-.41.27-.14,1-.51c.74-.41,1.36-.77,2-1.15a8.16,8.16,0,0,1,1-.52l.9-.42.26-.11a21.3,21.3,0,0,1,4.22-1.24,19.62,19.62,0,0,1,4.6-.22A16.29,16.29,0,0,1,125,24a13.14,13.14,0,0,0-4.49-1.75A17,17,0,0,0,115.65,22Z"/><path class="cls-1" d="M121.82,24.58a16.69,16.69,0,0,0-4.89-.24l-1.22.15c-.41.06-.8.17-1.2.26l-.61.14-.58.19-1.07.35-.77.31c-.52.25-1.06.45-1.55.74-.7.39-1.44.81-2.08,1.15A17.72,17.72,0,0,1,99.22,30a22.35,22.35,0,0,1-9.1-1.87,17.53,17.53,0,0,0,9.09,3.12,16.47,16.47,0,0,0,4.79-.39l.25-.06a13.41,13.41,0,0,0,2.22-.73c.34-.14.68-.26,1-.41l.28-.14.94-.51,2-1.15a8,8,0,0,1,1-.51l.9-.43.26-.11a22.08,22.08,0,0,1,4.23-1.24,19,19,0,0,1,4.59-.21,16.77,16.77,0,0,1,4.6,1A13.14,13.14,0,0,0,121.82,24.58Z"/></g></g></svg>