<svg xmlns="http://www.w3.org/2000/svg" viewBox="0 0 85.66 95.18"><defs><style>.cls-1{fill:#fff;}</style></defs><title>Asset 25</title><g id="Layer_2" data-name="Layer 2"><g id="Layer_1-2" data-name="Layer 1"><path class="cls-1" d="M9.87,85l.09-.25a14.76,14.76,0,0,0,.6-2.26c.07-.35.15-.71.2-1.06,0-.1,0-.2,0-.3l.09-1.08c.06-.84.09-1.56.14-2.33a7,7,0,0,1,.12-1.12c0-.33.1-.66.14-1a2.74,2.74,0,0,1,.05-.28,21.29,21.29,0,0,1,1.27-4.21,19.13,19.13,0,0,1,2.33-4,16.58,16.58,0,0,1,3.32-3.32,13,13,0,0,0-3.92,2.8,17.31,17.31,0,0,0-2.88,4l-.54,1.11c-.17.37-.29.77-.44,1.15l-.21.58-.16.59-.29,1.09c-.05.27-.11.54-.16.82-.07.56-.2,1.13-.22,1.69-.06.81-.12,1.65-.18,2.37a17.67,17.67,0,0,1-2.72,8.53A22.23,22.23,0,0,1,0,95.14a17.53,17.53,0,0,0,7.58-5.9A16.44,16.44,0,0,0,9.87,85Z"/><path class="cls-1" d="M12.79,85a1.83,1.83,0,0,0,.08-.25,14.79,14.79,0,0,0,.61-2.26c.06-.35.14-.71.2-1.06,0-.1,0-.2,0-.3l.09-1.08c.06-.84.09-1.56.13-2.33a8.35,8.35,0,0,1,.13-1.12c0-.33.1-.66.14-1a2.7,2.7,0,0,1,0-.28,21.73,21.73,0,0,1,1.28-4.21,19.13,19.13,0,0,1,2.33-4,16.79,16.79,0,0,1,3.31-3.32,13.24,13.24,0,0,0-3.91,2.8,17.31,17.31,0,0,0-2.88,4l-.54,1.11c-.17.38-.29.77-.44,1.15l-.21.58L13,74l-.3,1.09-.15.82c-.07.56-.2,1.13-.23,1.7-.06.8-.11,1.64-.18,2.36a17.53,17.53,0,0,1-2.72,8.54,22.16,22.16,0,0,1-6.53,6.59,17.53,17.53,0,0,0,7.58-5.9A17.07,17.07,0,0,0,12.79,85Z"/><path class="cls-1" d="M15.7,85a1.84,1.84,0,0,0,.09-.25,14.79,14.79,0,0,0,.61-2.26c.06-.35.14-.71.2-1.06l0-.3L16.72,80c.06-.84.1-1.56.14-2.32A8.5,8.5,0,0,1,17,76.58c0-.33.09-.66.14-1,0-.09,0-.18,0-.28a21.73,21.73,0,0,1,1.28-4.21,18.94,18.94,0,0,1,2.33-4,16.53,16.53,0,0,1,3.31-3.32,13.24,13.24,0,0,0-3.91,2.8,17,17,0,0,0-2.88,4l-.54,1.11c-.17.38-.29.77-.44,1.15l-.21.58L16,74l-.3,1.09-.15.82a16.15,16.15,0,0,0-.23,1.7c-.06.8-.11,1.64-.18,2.36a17.74,17.74,0,0,1-2.72,8.54A22.28,22.28,0,0,1,5.84,95.1a17.5,17.5,0,0,0,7.57-5.9A16.44,16.44,0,0,0,15.7,85Z"/><path class="cls-1" d="M18.62,85l.09-.25a13.69,13.69,0,0,0,.6-2.26c.07-.35.15-.71.21-1.06l0-.3L19.64,80c.06-.84.1-1.56.14-2.32a10.55,10.55,0,0,1,.12-1.13c.05-.33.1-.66.14-1,0-.1,0-.19.05-.29a21.7,21.7,0,0,1,1.27-4.21,19.39,19.39,0,0,1,2.33-4A16.84,16.84,0,0,1,27,63.79a13.29,13.29,0,0,0-3.92,2.8,17,17,0,0,0-2.87,4l-.54,1.11c-.17.38-.29.77-.44,1.15l-.21.58-.17.59-.29,1.09-.15.82a16.15,16.15,0,0,0-.23,1.7c-.06.8-.12,1.65-.18,2.37a17.73,17.73,0,0,1-2.72,8.53,22.2,22.2,0,0,1-6.54,6.59,17.58,17.58,0,0,0,7.58-5.89A16.66,16.66,0,0,0,18.62,85Z"/><path class="cls-1" d="M21.54,84.94l.09-.24a14.88,14.88,0,0,0,.6-2.27c.07-.35.15-.71.2-1.06,0-.1,0-.2,0-.3L22.56,80c.06-.85.09-1.57.14-2.33a10.55,10.55,0,0,1,.12-1.13c.05-.33.1-.66.14-1a2.93,2.93,0,0,1,.05-.29,21.7,21.7,0,0,1,1.27-4.21,19.39,19.39,0,0,1,2.33-4,16.84,16.84,0,0,1,3.32-3.32A13.16,13.16,0,0,0,26,66.57a17.31,17.31,0,0,0-2.88,4l-.54,1.11c-.16.38-.29.77-.43,1.15l-.22.58-.16.59-.29,1.09c0,.28-.1.55-.16.82-.07.57-.2,1.13-.22,1.7-.06.8-.12,1.65-.18,2.37a17.73,17.73,0,0,1-2.72,8.53,22.35,22.35,0,0,1-6.54,6.6,17.68,17.68,0,0,0,7.58-5.9A16.66,16.66,0,0,0,21.54,84.94Z"/><path class="cls-1" d="M24.46,84.92a2.25,2.25,0,0,0,.08-.24,14.91,14.91,0,0,0,.61-2.27c.07-.35.14-.7.2-1.06,0-.1,0-.2,0-.3L25.48,80c.06-.85.09-1.57.14-2.33a7.1,7.1,0,0,1,.12-1.13c.05-.33.1-.65.14-1,0-.1,0-.19,0-.29A21.73,21.73,0,0,1,27.2,71a19.39,19.39,0,0,1,2.33-4,16.84,16.84,0,0,1,3.32-3.32,13,13,0,0,0-3.92,2.81,16.89,16.89,0,0,0-2.88,4l-.54,1.1c-.17.38-.29.77-.44,1.15l-.21.58-.16.59L24.4,75l-.15.82c-.07.57-.2,1.13-.23,1.7-.05.8-.11,1.65-.17,2.37a17.73,17.73,0,0,1-2.72,8.53,22.47,22.47,0,0,1-6.54,6.6,17.61,17.61,0,0,0,7.58-5.9A17.31,17.31,0,0,0,24.46,84.92Z"/><path class="cls-1" d="M27.37,84.9a1.17,1.17,0,0,0,.09-.24,15.11,15.11,0,0,0,.61-2.26c.06-.36.14-.71.2-1.07a1.53,1.53,0,0,0,0-.3L28.39,80c.06-.85.1-1.57.14-2.33a8.69,8.69,0,0,1,.13-1.13c0-.33.09-.65.14-1a2.36,2.36,0,0,1,0-.28A21.61,21.61,0,0,1,30.12,71a18.63,18.63,0,0,1,2.33-4,16.32,16.32,0,0,1,3.31-3.33,13.1,13.1,0,0,0-3.91,2.81,16.89,16.89,0,0,0-2.88,4l-.54,1.1c-.17.38-.29.77-.44,1.15l-.21.58-.16.6L27.32,75l-.15.82a16.51,16.51,0,0,0-.23,1.7c-.06.8-.11,1.65-.18,2.37A17.49,17.49,0,0,1,24,88.43,22.31,22.31,0,0,1,17.51,95a17.61,17.61,0,0,0,7.58-5.9A17,17,0,0,0,27.37,84.9Z"/><path class="cls-1" d="M30.29,84.88l.09-.24A15.11,15.11,0,0,0,31,82.38c.06-.36.14-.71.2-1.07l0-.3.09-1.07c.06-.85.1-1.57.14-2.33a8.69,8.69,0,0,1,.13-1.13c0-.33.09-.65.13-1,0-.1,0-.19.05-.28A21,21,0,0,1,33,71a19,19,0,0,1,2.32-4,16.63,16.63,0,0,1,3.32-3.33,13.1,13.1,0,0,0-3.91,2.81,16.61,16.61,0,0,0-2.88,4l-.54,1.11c-.17.37-.29.76-.44,1.15l-.21.57-.17.6L30.24,75l-.15.81a16.51,16.51,0,0,0-.23,1.7c-.06.8-.11,1.65-.18,2.37A17.67,17.67,0,0,1,27,88.41,22.35,22.35,0,0,1,20.42,95,17.53,17.53,0,0,0,28,89.11,16.5,16.5,0,0,0,30.29,84.88Z"/><path class="cls-1" d="M33.21,84.86l.09-.24a14,14,0,0,0,.6-2.26c.07-.36.15-.71.2-1.07,0-.1,0-.2,0-.3l.09-1.07c.06-.85.1-1.57.14-2.33a10.83,10.83,0,0,1,.12-1.13c0-.32.1-.65.14-1a2.74,2.74,0,0,1,0-.28A21.58,21.58,0,0,1,36,71a19.32,19.32,0,0,1,2.33-4,16.63,16.63,0,0,1,3.32-3.33,13.32,13.32,0,0,0-3.92,2.81,16.89,16.89,0,0,0-2.88,4l-.54,1.11c-.16.37-.29.76-.43,1.15l-.22.58-.16.59L33.16,75l-.15.81a16.51,16.51,0,0,0-.23,1.7c-.06.8-.12,1.65-.18,2.37a17.67,17.67,0,0,1-2.72,8.53A22.35,22.35,0,0,1,23.34,95a17.53,17.53,0,0,0,7.58-5.9A16.33,16.33,0,0,0,33.21,84.86Z"/><path class="cls-1" d="M36.13,84.84l.09-.24a14.76,14.76,0,0,0,.6-2.26c.07-.36.14-.71.2-1.07,0-.1,0-.2,0-.3l.09-1.07c.06-.84.09-1.56.14-2.33a7.23,7.23,0,0,1,.12-1.13c.05-.32.1-.65.14-1a2.74,2.74,0,0,1,.05-.28A21.58,21.58,0,0,1,38.87,71a19.32,19.32,0,0,1,2.33-4,16.63,16.63,0,0,1,3.32-3.33,13.19,13.19,0,0,0-3.92,2.81,17.1,17.1,0,0,0-2.88,4l-.54,1.11c-.17.37-.29.76-.44,1.15l-.21.58-.16.59L36.08,75c-.06.27-.11.54-.16.81-.07.57-.2,1.13-.22,1.7-.06.8-.12,1.65-.18,2.37a17.67,17.67,0,0,1-2.72,8.53A22.47,22.47,0,0,1,26.26,95a17.53,17.53,0,0,0,7.58-5.9A16.33,16.33,0,0,0,36.13,84.84Z"/><path class="cls-1" d="M40.4,70.65l-.54,1.11c-.16.38-.29.77-.43,1.15l-.22.58-.16.59-.29,1.09L38.6,76c-.07.56-.2,1.13-.22,1.7-.06.8-.12,1.64-.18,2.37a17.73,17.73,0,0,1-2.72,8.53,22.2,22.2,0,0,1-6.54,6.59,17.53,17.53,0,0,0,7.58-5.9,16.44,16.44,0,0,0,2.29-4.22l.09-.25a14.76,14.76,0,0,0,.6-2.26c.07-.35.15-.71.2-1.06,0-.1,0-.2,0-.3l.09-1.08c.06-.84.09-1.56.14-2.32a8.49,8.49,0,0,1,.12-1.13c0-.33.1-.66.14-1,0-.09,0-.18.05-.28a21.7,21.7,0,0,1,1.27-4.21,19.39,19.39,0,0,1,2.33-4,16.84,16.84,0,0,1,3.32-3.32,13.16,13.16,0,0,0-3.92,2.8A17.31,17.31,0,0,0,40.4,70.65Z"/><path class="cls-1" d="M26.81,57.41a16.66,16.66,0,0,0,2.29-4.23l.09-.24a15.19,15.19,0,0,0,.6-2.27c.07-.35.15-.71.2-1.06,0-.1,0-.2,0-.3l.09-1.07c.06-.85.09-1.57.14-2.33a8.49,8.49,0,0,1,.12-1.13c.05-.33.1-.66.14-1a2.93,2.93,0,0,1,.05-.29,21.7,21.7,0,0,1,1.27-4.21,19.39,19.39,0,0,1,2.33-4A16.84,16.84,0,0,1,37.49,32a13.16,13.16,0,0,0-3.92,2.8,17.31,17.31,0,0,0-2.88,4l-.54,1.11c-.16.38-.29.77-.44,1.15l-.21.58-.16.59-.29,1.09-.16.82c-.07.56-.2,1.13-.22,1.7-.06.8-.12,1.65-.18,2.37a17.73,17.73,0,0,1-2.72,8.53,22.47,22.47,0,0,1-6.54,6.6A17.68,17.68,0,0,0,26.81,57.41Z"/><path class="cls-1" d="M32.1,52.92a14.91,14.91,0,0,0,.61-2.27c.06-.35.14-.7.2-1.06,0-.1,0-.2,0-.3L33,48.22c.06-.85.09-1.57.14-2.33a7.1,7.1,0,0,1,.12-1.13c.05-.33.1-.65.14-1a2.89,2.89,0,0,1,0-.29,21.73,21.73,0,0,1,1.28-4.21,19.39,19.39,0,0,1,2.33-4A16.84,16.84,0,0,1,40.41,32a13,13,0,0,0-3.92,2.81,16.89,16.89,0,0,0-2.88,4l-.54,1.1c-.17.38-.29.77-.44,1.15l-.21.58-.16.59L32,43.27l-.15.82c-.07.57-.2,1.13-.23,1.7-.06.8-.11,1.65-.17,2.37a17.73,17.73,0,0,1-2.72,8.53,22.47,22.47,0,0,1-6.54,6.6,17.68,17.68,0,0,0,7.58-5.9A17.31,17.31,0,0,0,32,53.16,2.25,2.25,0,0,0,32.1,52.92Z"/><path class="cls-1" d="M32.65,57.37a17,17,0,0,0,2.28-4.23A2.34,2.34,0,0,0,35,52.9a15.11,15.11,0,0,0,.61-2.26c.06-.36.14-.71.2-1.07,0-.1,0-.2,0-.3L36,48.2c.06-.85.1-1.57.14-2.33a8.69,8.69,0,0,1,.13-1.13c0-.33.09-.65.14-1a2.36,2.36,0,0,1,0-.28,21.61,21.61,0,0,1,1.28-4.22,18.63,18.63,0,0,1,2.33-4A16.32,16.32,0,0,1,43.32,32a13.1,13.1,0,0,0-3.91,2.81,16.89,16.89,0,0,0-2.88,4L36,39.84c-.17.38-.29.77-.44,1.15l-.21.58-.16.59-.3,1.09-.15.82a16.51,16.51,0,0,0-.23,1.7c-.06.8-.11,1.65-.18,2.37a17.49,17.49,0,0,1-2.72,8.53,22.43,22.43,0,0,1-6.53,6.6A17.61,17.61,0,0,0,32.65,57.37Z"/><path class="cls-1" d="M35.56,57.35a16.5,16.5,0,0,0,2.29-4.23l.09-.24a15.11,15.11,0,0,0,.61-2.26c.06-.36.14-.71.2-1.07l0-.3.09-1.07c.06-.85.1-1.57.14-2.33a10.83,10.83,0,0,1,.12-1.13c0-.33.1-.65.14-1,0-.1,0-.19,0-.28a21,21,0,0,1,1.28-4.22,18.58,18.58,0,0,1,2.32-4A16.63,16.63,0,0,1,46.24,32a13.1,13.1,0,0,0-3.91,2.81,16.34,16.34,0,0,0-2.88,4l-.54,1.11c-.17.37-.29.76-.44,1.15l-.21.57-.17.6-.29,1.09-.15.81a16.51,16.51,0,0,0-.23,1.7c-.06.8-.12,1.65-.18,2.37a17.67,17.67,0,0,1-2.72,8.53A22.35,22.35,0,0,1,28,63.25,17.53,17.53,0,0,0,35.56,57.35Z"/><path class="cls-1" d="M38.48,57.33a16.5,16.5,0,0,0,2.29-4.23l.09-.24a14,14,0,0,0,.6-2.26c.07-.36.15-.71.2-1.07,0-.1,0-.2,0-.3l.09-1.07c.06-.85.1-1.57.14-2.33a10.83,10.83,0,0,1,.12-1.13c.05-.32.1-.65.14-1a2.74,2.74,0,0,1,.05-.28,21.58,21.58,0,0,1,1.27-4.22,19.32,19.32,0,0,1,2.33-4,16.63,16.63,0,0,1,3.32-3.33,13.32,13.32,0,0,0-3.92,2.81,16.89,16.89,0,0,0-2.88,4l-.54,1.11c-.16.37-.29.76-.43,1.15l-.22.57-.16.6-.29,1.09-.15.81a16.51,16.51,0,0,0-.23,1.7c-.06.8-.12,1.65-.18,2.37a17.67,17.67,0,0,1-2.72,8.53,22.35,22.35,0,0,1-6.54,6.6A17.53,17.53,0,0,0,38.48,57.33Z"/><path class="cls-1" d="M41.4,57.31a16.64,16.64,0,0,0,2.29-4.23,2.25,2.25,0,0,0,.08-.24,13.72,13.72,0,0,0,.61-2.26c.07-.36.14-.71.2-1.07,0-.1,0-.2,0-.3l.09-1.07c.06-.84.09-1.56.14-2.33A7.23,7.23,0,0,1,45,44.68c.05-.32.1-.65.14-1a2.74,2.74,0,0,1,0-.28,21.58,21.58,0,0,1,1.27-4.22,19.32,19.32,0,0,1,2.33-4,16.63,16.63,0,0,1,3.32-3.33,13.19,13.19,0,0,0-3.92,2.81,17.1,17.1,0,0,0-2.88,4l-.54,1.11c-.17.37-.29.76-.44,1.15l-.21.58-.16.59-.29,1.09-.16.81c-.07.57-.2,1.13-.22,1.7-.06.8-.12,1.65-.18,2.37a17.67,17.67,0,0,1-2.72,8.53,22.47,22.47,0,0,1-6.54,6.6A17.53,17.53,0,0,0,41.4,57.31Z"/><path class="cls-1" d="M44.32,57.29a16.61,16.61,0,0,0,2.28-4.23,1.17,1.17,0,0,0,.09-.24,14.79,14.79,0,0,0,.61-2.26c.06-.36.14-.71.2-1.07a1.53,1.53,0,0,0,0-.3l.09-1.07c.07-.84.1-1.56.14-2.33a8.69,8.69,0,0,1,.13-1.13c0-.32.1-.65.14-1a2.7,2.7,0,0,1,0-.28,21.61,21.61,0,0,1,1.28-4.22,19.32,19.32,0,0,1,2.33-4A16.84,16.84,0,0,1,55,31.89a13.28,13.28,0,0,0-3.91,2.81,17.1,17.1,0,0,0-2.88,4l-.54,1.11c-.17.37-.29.76-.44,1.15L47,41.5l-.16.59-.3,1.09L46.4,44a16.51,16.51,0,0,0-.23,1.7c-.06.81-.11,1.65-.18,2.37a17.46,17.46,0,0,1-2.72,8.53,22.2,22.2,0,0,1-6.53,6.6A17.53,17.53,0,0,0,44.32,57.29Z"/><path class="cls-1" d="M47.23,57.27a16.44,16.44,0,0,0,2.29-4.22l.09-.25a14.79,14.79,0,0,0,.61-2.26c.06-.36.14-.71.2-1.06l0-.3.09-1.08c.06-.84.1-1.56.14-2.33a8.35,8.35,0,0,1,.13-1.12c0-.33.09-.66.13-1,0-.09,0-.19.05-.28a20.67,20.67,0,0,1,1.28-4.21,19.08,19.08,0,0,1,2.32-4,16.89,16.89,0,0,1,3.32-3.33A13.28,13.28,0,0,0,54,34.68a16.81,16.81,0,0,0-2.88,4l-.54,1.11c-.17.37-.29.77-.44,1.15l-.21.58-.16.59-.3,1.09-.15.82a16.32,16.32,0,0,0-.23,1.69c-.06.81-.11,1.65-.18,2.37a17.67,17.67,0,0,1-2.72,8.53,22.12,22.12,0,0,1-6.54,6.6A17.53,17.53,0,0,0,47.23,57.27Z"/><path class="cls-1" d="M50.15,57.25A16.44,16.44,0,0,0,52.44,53l.09-.25a13.69,13.69,0,0,0,.6-2.26c.07-.35.15-.71.2-1.06,0-.1,0-.2,0-.3l.09-1.08c.06-.84.1-1.56.14-2.33a10.36,10.36,0,0,1,.12-1.12c.05-.33.1-.66.14-1a2.74,2.74,0,0,1,0-.28,21.49,21.49,0,0,1,1.27-4.21,19.13,19.13,0,0,1,2.33-4,16.58,16.58,0,0,1,3.32-3.32,13.29,13.29,0,0,0-3.92,2.8,17,17,0,0,0-2.87,4l-.54,1.11c-.17.37-.3.77-.44,1.15l-.22.58-.16.59-.29,1.09-.15.82A16.32,16.32,0,0,0,52,45.65c-.06.81-.12,1.65-.18,2.37a17.67,17.67,0,0,1-2.72,8.53,22.12,22.12,0,0,1-6.54,6.6A17.53,17.53,0,0,0,50.15,57.25Z"/><path class="cls-1" d="M53.07,57.23A16.44,16.44,0,0,0,55.36,53l.09-.25a14.76,14.76,0,0,0,.6-2.26c.07-.35.15-.71.2-1.06,0-.1,0-.2,0-.3l.09-1.08c.06-.84.09-1.56.14-2.33a7,7,0,0,1,.12-1.12c0-.33.1-.66.14-1,0-.09,0-.18,0-.28a21.7,21.7,0,0,1,1.27-4.21,19.13,19.13,0,0,1,2.33-4,16.58,16.58,0,0,1,3.32-3.32,13.16,13.16,0,0,0-3.92,2.8,17.31,17.31,0,0,0-2.88,4l-.54,1.11c-.17.38-.29.77-.44,1.15l-.21.58L55.6,42l-.29,1.09c-.05.27-.11.54-.16.82-.07.56-.2,1.13-.22,1.7-.06.8-.12,1.64-.18,2.36A17.74,17.74,0,0,1,52,56.54a22.32,22.32,0,0,1-6.54,6.59A17.53,17.53,0,0,0,53.07,57.23Z"/><path class="cls-1" d="M59.63,38.82l-.54,1.1c-.16.38-.29.77-.43,1.15l-.22.58-.16.6L58,43.33l-.15.82a16.51,16.51,0,0,0-.23,1.7c-.06.8-.12,1.65-.18,2.37a17.7,17.7,0,0,1-2.72,8.53,22.35,22.35,0,0,1-6.54,6.6,17.61,17.61,0,0,0,7.58-5.9A16.66,16.66,0,0,0,58,53.22l.09-.24a14,14,0,0,0,.6-2.26c.07-.36.15-.71.2-1.07,0-.1,0-.2,0-.3l.09-1.07c.06-.85.1-1.57.14-2.33a10.83,10.83,0,0,1,.12-1.13c0-.33.1-.65.14-1a2.33,2.33,0,0,1,0-.28,21.58,21.58,0,0,1,1.27-4.22,19.06,19.06,0,0,1,2.33-4,16.63,16.63,0,0,1,3.32-3.33,13.14,13.14,0,0,0-3.92,2.81A16.89,16.89,0,0,0,59.63,38.82Z"/><path class="cls-1" d="M46,25.57a16.5,16.5,0,0,0,2.29-4.23l.09-.24a15.07,15.07,0,0,0,.6-2.26c.07-.36.15-.71.2-1.07,0-.1,0-.2,0-.3l.09-1.07c.06-.85.09-1.57.14-2.33a10.83,10.83,0,0,1,.12-1.13c0-.33.1-.65.14-1a2.33,2.33,0,0,1,0-.28,21.58,21.58,0,0,1,1.27-4.22,19.06,19.06,0,0,1,2.33-4A16.63,16.63,0,0,1,56.72.17,13.19,13.19,0,0,0,52.8,3a16.89,16.89,0,0,0-2.88,4l-.54,1.11c-.16.37-.29.76-.43,1.15l-.22.57-.16.6-.29,1.09c-.05.27-.1.54-.16.81-.07.57-.2,1.13-.22,1.7-.06.8-.12,1.65-.18,2.37A17.67,17.67,0,0,1,45,24.87a22.35,22.35,0,0,1-6.54,6.6A17.53,17.53,0,0,0,46,25.57Z"/><path class="cls-1" d="M52.84,6.92,52.3,8c-.17.37-.29.76-.44,1.15l-.21.58-.16.59-.3,1.09-.15.81c-.07.57-.2,1.13-.23,1.7-.05.8-.11,1.65-.17,2.37a17.67,17.67,0,0,1-2.72,8.53,22.47,22.47,0,0,1-6.54,6.6A17.53,17.53,0,0,0,49,25.55a17,17,0,0,0,2.29-4.23,2.25,2.25,0,0,0,.08-.24,14.79,14.79,0,0,0,.61-2.26c.07-.36.14-.71.2-1.07,0-.1,0-.2,0-.3l.09-1.07c.06-.84.09-1.56.14-2.33a7.23,7.23,0,0,1,.12-1.13c0-.32.1-.65.14-1,0-.09,0-.19,0-.28A21.61,21.61,0,0,1,54,7.44a19.32,19.32,0,0,1,2.33-4A16.63,16.63,0,0,1,59.64.15,13.19,13.19,0,0,0,55.72,3,16.89,16.89,0,0,0,52.84,6.92Z"/><path class="cls-1" d="M55.76,6.9,55.22,8c-.17.37-.29.76-.44,1.15l-.21.58-.16.59-.3,1.09-.15.81a16.51,16.51,0,0,0-.23,1.7c-.06.8-.11,1.65-.18,2.37a17.46,17.46,0,0,1-2.72,8.53,22.31,22.31,0,0,1-6.53,6.6,17.53,17.53,0,0,0,7.58-5.9,16.61,16.61,0,0,0,2.28-4.23,1.17,1.17,0,0,0,.09-.24,14.79,14.79,0,0,0,.61-2.26c.06-.36.14-.71.2-1.07a1.53,1.53,0,0,0,0-.3l.09-1.07c.06-.84.1-1.56.14-2.33a8.69,8.69,0,0,1,.13-1.13c0-.32.09-.65.14-1a2.7,2.7,0,0,1,0-.28,21.61,21.61,0,0,1,1.28-4.22,18.88,18.88,0,0,1,2.33-4A16.57,16.57,0,0,1,62.55.13a13.28,13.28,0,0,0-3.91,2.81A17.1,17.1,0,0,0,55.76,6.9Z"/><path class="cls-1" d="M58.68,6.88,58.14,8c-.17.37-.29.77-.44,1.15l-.21.58-.17.59L57,11.4l-.15.81a16.51,16.51,0,0,0-.23,1.7c-.06.81-.11,1.65-.18,2.37a17.67,17.67,0,0,1-2.72,8.53,22.12,22.12,0,0,1-6.54,6.6,17.53,17.53,0,0,0,7.58-5.9,16.44,16.44,0,0,0,2.29-4.22l.09-.25a14.79,14.79,0,0,0,.61-2.26c.06-.36.14-.71.2-1.07l0-.29.09-1.08c.06-.84.1-1.56.14-2.33a8.35,8.35,0,0,1,.13-1.12c0-.33.09-.66.13-1,0-.09,0-.19,0-.28a20.67,20.67,0,0,1,1.28-4.21,19.08,19.08,0,0,1,2.32-4A16.89,16.89,0,0,1,65.47.11a13.28,13.28,0,0,0-3.91,2.81A16.81,16.81,0,0,0,58.68,6.88Z"/><path class="cls-1" d="M61.59,6.86,61.05,8c-.16.37-.29.77-.43,1.15l-.22.58-.16.59L60,11.38l-.15.82a16.32,16.32,0,0,0-.23,1.69c-.06.81-.12,1.65-.18,2.37a17.67,17.67,0,0,1-2.72,8.53,22.12,22.12,0,0,1-6.54,6.6,17.53,17.53,0,0,0,7.58-5.9A16.44,16.44,0,0,0,60,21.27l.09-.25a13.69,13.69,0,0,0,.6-2.26c.07-.35.15-.71.2-1.06,0-.1,0-.2,0-.3L61,16.32c.06-.84.1-1.56.14-2.33a10.36,10.36,0,0,1,.12-1.12c0-.33.1-.66.14-1a2.74,2.74,0,0,1,0-.28,21.49,21.49,0,0,1,1.27-4.21,19.13,19.13,0,0,1,2.33-4A16.58,16.58,0,0,1,68.39.1a13.29,13.29,0,0,0-3.92,2.8A17.31,17.31,0,0,0,61.59,6.86Z"/><path class="cls-1" d="M64.51,6.84,64,8c-.17.38-.29.77-.44,1.15l-.21.58-.16.59-.29,1.09c-.06.27-.11.54-.16.82-.07.56-.2,1.13-.22,1.7-.06.8-.12,1.64-.18,2.36a17.74,17.74,0,0,1-2.72,8.54,22.32,22.32,0,0,1-6.54,6.59,17.53,17.53,0,0,0,7.58-5.9,16.44,16.44,0,0,0,2.29-4.22L63,21a14.76,14.76,0,0,0,.6-2.26c.07-.35.14-.71.2-1.06,0-.1,0-.2,0-.3l.09-1.08c.06-.84.09-1.56.14-2.33a7,7,0,0,1,.12-1.12c0-.33.1-.66.14-1,0-.09,0-.18,0-.28a21.7,21.7,0,0,1,1.27-4.21A19.13,19.13,0,0,1,68,3.4,16.58,16.58,0,0,1,71.31.08a13.16,13.16,0,0,0-3.92,2.8A17.31,17.31,0,0,0,64.51,6.84Z"/><path class="cls-1" d="M67.43,6.82l-.54,1.11c-.17.38-.29.77-.44,1.15l-.21.58-.16.59-.3,1.09-.15.82c-.08.56-.2,1.13-.23,1.7-.06.8-.11,1.64-.18,2.37a17.52,17.52,0,0,1-2.72,8.53A22.16,22.16,0,0,1,56,31.35a17.53,17.53,0,0,0,7.58-5.9,17.07,17.07,0,0,0,2.29-4.22,1.83,1.83,0,0,0,.08-.25,14.79,14.79,0,0,0,.61-2.26c.06-.35.14-.71.2-1.06,0-.1,0-.2,0-.3l.09-1.08c.06-.84.09-1.56.13-2.32a8.5,8.5,0,0,1,.13-1.13c0-.33.1-.66.14-1,0-.09,0-.18,0-.28a21.73,21.73,0,0,1,1.28-4.21,19.39,19.39,0,0,1,2.33-4A16.79,16.79,0,0,1,74.22.06a13.24,13.24,0,0,0-3.91,2.8A17.31,17.31,0,0,0,67.43,6.82Z"/><path class="cls-1" d="M70.35,6.8l-.54,1.11c-.17.38-.29.77-.44,1.15l-.21.58-.16.59-.3,1.09-.15.82a16.15,16.15,0,0,0-.23,1.7c-.06.8-.11,1.65-.18,2.37a17.73,17.73,0,0,1-2.72,8.53,22.28,22.28,0,0,1-6.53,6.59,17.56,17.56,0,0,0,7.57-5.89,16.66,16.66,0,0,0,2.29-4.23,2.34,2.34,0,0,0,.09-.24,15.23,15.23,0,0,0,.61-2.27c.06-.35.14-.71.2-1.06l0-.3.09-1.08c.06-.84.1-1.56.14-2.32A8.5,8.5,0,0,1,70,12.81c0-.33.09-.66.14-1a2.89,2.89,0,0,1,0-.29A21.05,21.05,0,0,1,71.5,7.33a18.94,18.94,0,0,1,2.33-4A16.53,16.53,0,0,1,77.14,0a13.24,13.24,0,0,0-3.91,2.8A17,17,0,0,0,70.35,6.8Z"/><path class="cls-1" d="M73.27,6.78l-.54,1.11c-.17.38-.3.77-.44,1.15l-.21.58-.17.59-.29,1.09-.15.82a16.51,16.51,0,0,0-.23,1.7c-.06.8-.12,1.65-.18,2.37a17.73,17.73,0,0,1-2.72,8.53,22.35,22.35,0,0,1-6.54,6.6,17.68,17.68,0,0,0,7.58-5.9,16.66,16.66,0,0,0,2.29-4.23l.09-.24a13.81,13.81,0,0,0,.6-2.27c.07-.35.15-.7.21-1.06l0-.3.09-1.07c.06-.85.1-1.57.14-2.33A10.55,10.55,0,0,1,73,12.79c0-.33.1-.65.14-1a2.93,2.93,0,0,1,0-.29,21.7,21.7,0,0,1,1.27-4.21,19.39,19.39,0,0,1,2.33-4A16.84,16.84,0,0,1,80.06,0a13.29,13.29,0,0,0-3.92,2.8A17,17,0,0,0,73.27,6.78Z"/><path class="cls-1" d="M76.18,6.77l-.54,1.1c-.16.38-.29.77-.43,1.15L75,9.6l-.16.59-.29,1.09c-.05.28-.1.55-.16.82-.07.57-.2,1.13-.22,1.7-.06.8-.12,1.65-.18,2.37a17.73,17.73,0,0,1-2.72,8.53,22.47,22.47,0,0,1-6.54,6.6,17.61,17.61,0,0,0,7.58-5.9,16.66,16.66,0,0,0,2.29-4.23l.09-.24a14.88,14.88,0,0,0,.6-2.27c.07-.35.15-.7.2-1.06,0-.1,0-.2,0-.3l.09-1.07c.06-.85.09-1.57.14-2.33a8.49,8.49,0,0,1,.12-1.13c0-.33.1-.65.14-1a2.33,2.33,0,0,1,0-.28,21.58,21.58,0,0,1,1.27-4.22,19.39,19.39,0,0,1,2.33-4A16.84,16.84,0,0,1,83,0a13,13,0,0,0-3.92,2.81A16.89,16.89,0,0,0,76.18,6.77Z"/><path class="cls-1" d="M81.74,3a17.1,17.1,0,0,0-2.88,4l-.54,1.11c-.16.37-.29.76-.43,1.15l-.22.58-.16.59-.29,1.09-.15.81a16.51,16.51,0,0,0-.23,1.7c-.06.81-.12,1.65-.18,2.37a17.67,17.67,0,0,1-2.72,8.53,22.23,22.23,0,0,1-6.54,6.6A17.53,17.53,0,0,0,75,25.61a16.44,16.44,0,0,0,2.29-4.22l.09-.25a13.69,13.69,0,0,0,.6-2.26c.07-.36.15-.71.2-1.07,0-.1,0-.2,0-.3l.09-1.07c.06-.84.1-1.56.14-2.33A10.83,10.83,0,0,1,78.55,13c0-.32.1-.65.14-1a2.74,2.74,0,0,1,0-.28A21.58,21.58,0,0,1,80,7.5a19.32,19.32,0,0,1,2.33-4A16.89,16.89,0,0,1,85.66.21,13.32,13.32,0,0,0,81.74,3Z"/></g></g></svg>