<svg xmlns="http://www.w3.org/2000/svg" viewBox="0 0 71.2 37.68"><defs><style>.cls-1{fill:#fff;}</style></defs><title>Asset 17</title><g id="Layer_2" data-name="Layer 2"><g id="Layer_1-2" data-name="Layer 1"><path class="cls-1" d="M67.32,12.71l-.71,1a3.31,3.31,0,0,0-1.13.25l-.13-.08a2.29,2.29,0,0,0-.09-1.86l1-2.58c.32-.8-1.29-1.28-2.55-1.1-.82-.45-2.72-.53-3.32.09l-.15.16a.94.94,0,0,0-.19-.14l.08-1.24c0-.35-.46-.65-1.09-.81l-.18,0a3,3,0,0,1-.16-.71s0-.08,0-.12h0l-.06-.25c-.16-.48-1.07-.68-2-.65a4,4,0,0,0-.51-.24c-.58-.76-3.27-.94-3.75,0q-2,4-4.14,8c-1-.21-2.23-.09-2.61.56l0,.09a4.18,4.18,0,0,0-2.35.11c0-.92-2.7-1.19-3.71-.38a6,6,0,0,0-.85,0l0-.64c.09-1,.15-1.91.17-2.87S35.69,8.09,35,9c-.11.13-.2.27-.29.4-.76,0-1.45.24-1.59.65A64.67,64.67,0,0,1,29,19c.34-1.22.69-2.45,1.05-3.67.23-.77-1.38-1.25-2.58-1.14a41.87,41.87,0,0,0,1.62-6.86c.12-.77-1.93-1.09-3.11-.76a1.82,1.82,0,0,1,.07-.25c.31-1.18-3.63-1.15-4,0-.2.69-.39,1.38-.58,2.07l-.09.33c-.7.05-1.32.26-1.49.63-.45,1-.89,1.93-1.33,2.9q.09-1.11.15-2.22A71.84,71.84,0,0,0,21.14.87c.23-1.19-3.62-1.13-3.95,0l-.37,1.27C16,2.2,15.16,2.5,15,3c0,.09,0,.18-.08.27-.87,0-1.7.34-1.78.87-.17,1.15-.34,2.3-.55,3.45-.2.42-.4.83-.59,1.25.09-1.31.19-2.62.33-3.93.1-1-3.55-1.28-3.89-.24-.58,1.79-1.12,3.59-1.64,5.4,0-.29,0-.59-.07-.88C6.66,8,2.86,8,2.8,9.19q-.36,6.62-.43,13.21A27.2,27.2,0,0,1,.06,29.2c-.34.68.87,1.13,2,1.14-.17,1-.35,2-.51,3-.08.55.9.87,1.9.89a4.07,4.07,0,0,0,2.67-.33A7.07,7.07,0,0,0,9.4,29.19c.68-1,1.28-2,1.88-3,.09-.15.18-.3.26-.45a3.55,3.55,0,0,0,.94.19c-.05.53-.09,1.06-.14,1.58l-.53,1.41a.64.64,0,0,0,.34.75c-.06.69-.12,1.37-.19,2.06-.07.86,2.89,1.31,3.69.46A22.8,22.8,0,0,0,19,27.66c-.3,1.64-.55,3.27-.76,4.9-.14,1.1,3.16,1.17,3.89.25a35.27,35.27,0,0,0,2.16-3.09,3,3,0,0,0,2.28-.63c1.37-1.8,2.63-3.61,3.8-5.44q-.57,3.87-.9,7.76c-.07.74,1.7,1.08,3,.79,2.58-.59,3.19-2.47,3.92-3.64a25.38,25.38,0,0,0,2.35-4.92l0-.06.56-.7c-.1.55-.19,1.09-.27,1.63s.57.73,1.33.85l0,.09c-.26.91,2.86,1.25,3.68.47l.51-.5q-1,3.43-1.68,6.88c-.22,1,3.32,1.22,3.88.24l.5-.87.23.1q-.36.75-.75,1.5c-.23.44-.47.88-.7,1.33s.37.9,1.2,1.06c-.17.3-.35.59-.51.89-.65,1.15,3,1.61,3.81.49s1.62-2.44,2.37-3.66a2.66,2.66,0,0,0,1,.37,2.4,2.4,0,0,0,.28.37c.67.75,3.34,1,3.81,0l.5-1.08a2.69,2.69,0,0,0,1.72-.45c3.23-2.59,4.2-5.8,5.46-8.69.4-.93.78-1.85,1.13-2.77q2.39-3.94,4.37-7.93C71.71,12,68.12,11.59,67.32,12.71Z"/></g></g></svg>