<svg xmlns="http://www.w3.org/2000/svg" viewBox="0 0 86.06 37.96"><defs><style>.cls-1{fill:#fff;}</style></defs><title>Asset28</title><g id="Layer_2" data-name="Layer 2"><g id="Layer_1-2" data-name="Layer 1"><ellipse class="cls-1" cx="45.65" cy="9.9" rx="1.66" ry="6.92" transform="translate(8.71 38.48) rotate(-49.97)"/><ellipse class="cls-1" cx="43.12" cy="15.23" rx="1.66" ry="6.92" transform="translate(17.03 52.79) rotate(-74.67)"/><ellipse class="cls-1" cx="24.84" cy="4.63" rx="1.66" ry="6.92" transform="translate(5.32 20.67) rotate(-49.97)"/><ellipse class="cls-1" cx="22.31" cy="9.96" rx="1.66" ry="6.92" transform="translate(6.8 28.85) rotate(-74.67)"/><ellipse class="cls-1" cx="33.92" cy="6.87" rx="1.66" ry="6.92" transform="translate(6.84 28.42) rotate(-49.97)"/><ellipse class="cls-1" cx="32.75" cy="16.32" rx="1.66" ry="6.92" transform="translate(8.35 43.6) rotate(-74.67)"/><ellipse class="cls-1" cx="66.59" cy="29.1" rx="1.66" ry="6.92" transform="translate(1.47 61.37) rotate(-49.97)"/><ellipse class="cls-1" cx="64.05" cy="34.44" rx="1.66" ry="6.92" transform="translate(13.91 87.11) rotate(-74.67)"/><ellipse class="cls-1" cx="45.78" cy="23.83" rx="1.66" ry="6.92" transform="translate(-1.92 43.55) rotate(-49.97)"/><ellipse class="cls-1" cx="43.24" cy="29.17" rx="1.66" ry="6.92" transform="translate(3.68 63.17) rotate(-74.67)"/><ellipse class="cls-1" cx="54.85" cy="26.07" rx="1.66" ry="6.92" transform="translate(-0.39 51.3) rotate(-49.97)"/><ellipse class="cls-1" cx="53.69" cy="35.53" rx="1.66" ry="6.92" transform="matrix(0.26, -0.96, 0.96, 0.26, 5.23, 77.92)"/><ellipse class="cls-1" cx="79.54" cy="19.14" rx="6.92" ry="1.66" transform="translate(-1.75 28.31) rotate(-19.97)"/><ellipse class="cls-1" cx="78.99" cy="13.26" rx="1.66" ry="6.92" transform="translate(59.25 90.88) rotate(-85.26)"/><ellipse class="cls-1" cx="58.19" cy="16.95" rx="6.92" ry="1.66" transform="translate(-2.29 20.89) rotate(-19.97)"/><ellipse class="cls-1" cx="57.64" cy="11.07" rx="1.66" ry="6.92" transform="translate(41.84 67.59) rotate(-85.26)"/><ellipse class="cls-1" cx="67.48" cy="17.96" rx="6.92" ry="1.66" transform="translate(-2.08 24.12) rotate(-19.97)"/><ellipse class="cls-1" cx="69.63" cy="8.68" rx="1.66" ry="6.92" transform="translate(55.23 77.35) rotate(-85.26)"/><ellipse class="cls-1" cx="28.8" cy="26.71" rx="6.92" ry="1.66" transform="translate(-7.39 11.44) rotate(-19.97)"/><ellipse class="cls-1" cx="28.25" cy="20.83" rx="1.66" ry="6.92" transform="translate(5.15 47.26) rotate(-85.26)"/><ellipse class="cls-1" cx="7.44" cy="24.52" rx="6.92" ry="1.66" transform="translate(-7.93 4.02) rotate(-19.97)"/><ellipse class="cls-1" cx="6.89" cy="18.64" rx="1.66" ry="6.92" transform="matrix(0.08, -1, 1, 0.08, -12.25, 23.97)"/><ellipse class="cls-1" cx="16.74" cy="25.53" rx="6.92" ry="1.66" transform="translate(-7.71 7.25) rotate(-19.97)"/><ellipse class="cls-1" cx="18.89" cy="16.25" rx="1.66" ry="6.92" transform="translate(1.13 33.73) rotate(-85.26)"/></g></g></svg>