<svg xmlns="http://www.w3.org/2000/svg" viewBox="0 0 54.84 40.77"><defs><style>.cls-1{fill:#fff;}</style></defs><title>Asset 16</title><g id="Layer_2" data-name="Layer 2"><g id="Layer_1-2" data-name="Layer 1"><path class="cls-1" d="M36.19,15c-1.83,0-3.69.08-5.48.23C29.67,6.4,26,0,21.44,0,17.74,0,14.59,4.27,13,10.67a8.9,8.9,0,0,0-3.92-.92,9.26,9.26,0,0,0,0,18.51,8.74,8.74,0,0,0,3.4-.68c1.34,7.77,4.8,13.19,9,13.19,4.5,0,8.17-6.31,9.25-15.09,1.8.16,3.66.24,5.5.24,9,0,18.65-1.91,18.65-5.45S45.23,15,36.19,15ZM21.44,1c4,0,7.29,6.1,8.27,14.36-5.36.55-10,1.81-11.57,3.69v0a9.28,9.28,0,0,0-4.24-7.83C15.35,5.12,18.19,1,21.44,1ZM30,20.38a41.26,41.26,0,0,1-.21,4.22c-6.85-.71-11.25-2.49-11.25-4.13S23,17.06,29.82,16.35C29.94,17.65,30,19,30,20.38ZM21.44,39.77c-3.67,0-6.81-5.27-8-12.64a9.22,9.22,0,0,0,4.4-5.71C19,23.57,23.89,25,29.69,25.59,28.68,33.75,25.37,39.77,21.44,39.77ZM36.19,24.92c-1.91,0-3.71-.08-5.39-.22A43.11,43.11,0,0,0,31,20.38c0-1.42-.06-2.8-.19-4.13,1.67-.14,3.47-.22,5.37-.22,10.4,0,17.65,2.34,17.65,4.44S46.59,24.92,36.19,24.92Z"/></g></g></svg>